G04 Layer: TopSolderMaskLayer*
G04 EasyEDA v6.3.39, 2020-04-28T14:26:17+02:00*
G04 c4984e7e24fd4f91a375e58d1da6a638,5f3c4bb061ab4bd6901f6ca22b42259b,10*
G04 Gerber Generator version 0.2*
G04 Scale: 100 percent, Rotated: No, Reflected: No *
G04 Dimensions in inches *
G04 leading zeros omitted , absolute positions ,2 integer and 4 decimal *
%FSLAX24Y24*%
%MOIN*%
G90*
G70D02*

%ADD21C,0.070992*%
%ADD22C,0.082000*%
%ADD23C,0.078866*%
%ADD25C,0.106425*%
%ADD26C,0.094614*%

%LPD*%
G54D21*
G01X1421Y8507D02*
G01X1578Y8507D01*
G01X1421Y9492D02*
G01X1578Y9492D01*
G01X14821Y8507D02*
G01X14978Y8507D01*
G01X14821Y9492D02*
G01X14978Y9492D01*
G01X8007Y1178D02*
G01X8007Y1021D01*
G01X8992Y1178D02*
G01X8992Y1021D01*
G54D22*
G01X13372Y6602D03*
G01X11327Y8796D03*
G01X7634Y6818D03*
G01X7165Y9781D03*
G01X11717Y6411D03*
G01X8782Y5788D03*
G54D23*
G01X11207Y4904D03*
G01X10892Y1295D03*
G36*
G01X9246Y7559D02*
G01X8577Y7976D01*
G01X8994Y8644D01*
G01X9663Y8226D01*
G01X9246Y7559D01*
G37*
G01X9650Y8950D03*
G01X10179Y9798D03*
G54D25*
G01X13950Y1036D03*
G54D26*
G01X13950Y4382D03*
G01X13950Y5563D03*
G54D22*
G01X3849Y6702D03*
G01X850Y6597D03*
G01X6223Y5163D03*
G01X9076Y4236D03*
G01X4761Y4281D03*
G01X5738Y7118D03*
G54D23*
G01X7011Y3645D03*
G01X4588Y954D03*
G36*
G01X4528Y9292D02*
G01X3763Y9482D01*
G01X3955Y10248D01*
G01X4719Y10057D01*
G01X4528Y9292D01*
G37*
G01X4000Y8800D03*
G01X3758Y7829D03*
G54D25*
G01X2150Y986D03*
G54D26*
G01X2150Y4332D03*
G01X2150Y5513D03*
M00*
M02*
