;Layer: Drill PTH
;EasyEDA v6.3.39, 2020-04-28T14:26:17+02:00
;c4984e7e24fd4f91a375e58d1da6a638,5f3c4bb061ab4bd6901f6ca22b42259b,10
;Gerber Generator version 0.2
M48
INCH,LZ,00.0000
;Holesize 1 = 0.035 INCH
T01C0.035
;Holesize 2 = 0.039 INCH
T02C0.039
;Holesize 3 = 0.043 INCH
T03C0.043
%
G05
G90
T01
X+013372Y+006602
X+011327Y+008797
X+007634Y+006818
X+007165Y+009781
X+011717Y+006411
X+008782Y+005788
X+003849Y+006702
X+000850Y+006597
X+006223Y+005163
X+009076Y+004236
X+004761Y+004281
X+005738Y+007118
T02
X+011207Y+004904
X+010892Y+001295
X+009120Y+008101
X+009650Y+008950
X+010179Y+009798
X+007011Y+003645
X+004588Y+000954
X+001500Y+008507
X+001500Y+009492
X+004241Y+009770
X+004000Y+008800
X+003758Y+007829
X+014900Y+008507
X+014900Y+009492
X+008007Y+001100
X+008992Y+001100
T03
X+013950Y+001036G85X+013949Y+001036
X+013950Y+004382G85X+013949Y+004382
X+013950Y+005563G85X+013949Y+005563
X+002150Y+000986G85X+002149Y+000986
X+002150Y+004332G85X+002149Y+004332
X+002150Y+005513G85X+002149Y+005513
M30
