G04 Layer: BottomLayer*
G04 EasyEDA v6.3.39, 2020-04-28T14:26:17+02:00*
G04 c4984e7e24fd4f91a375e58d1da6a638,5f3c4bb061ab4bd6901f6ca22b42259b,10*
G04 Gerber Generator version 0.2*
G04 Scale: 100 percent, Rotated: No, Reflected: No *
G04 Dimensions in inches *
G04 leading zeros omitted , absolute positions ,2 integer and 4 decimal *
%FSLAX24Y24*%
%MOIN*%
G90*
G70D02*

%ADD10C,0.010000*%
%ADD11C,0.012000*%
%ADD12C,0.074000*%
%ADD13C,0.070866*%
%ADD15C,0.098425*%
%ADD16C,0.086614*%
%ADD17C,0.062992*%

%LPD*%
G36*
G01X15859Y10550D02*
G01X190Y10550D01*
G01X178Y10548D01*
G01X173Y10546D01*
G01X163Y10540D01*
G01X159Y10536D01*
G01X153Y10526D01*
G01X151Y10521D01*
G01X150Y10515D01*
G01X150Y10509D01*
G01X199Y239D01*
G01X200Y234D01*
G01X201Y228D01*
G01X203Y223D01*
G01X209Y213D01*
G01X213Y209D01*
G01X223Y203D01*
G01X228Y201D01*
G01X234Y200D01*
G01X1726Y200D01*
G01X1732Y201D01*
G01X1737Y203D01*
G01X1742Y206D01*
G01X1746Y209D01*
G01X1751Y213D01*
G01X1757Y223D01*
G01X1759Y228D01*
G01X1760Y234D01*
G01X1760Y246D01*
G01X1759Y252D01*
G01X1756Y258D01*
G01X1753Y263D01*
G01X1749Y268D01*
G01X744Y1273D01*
G01X728Y1291D01*
G01X716Y1311D01*
G01X711Y1322D01*
G01X707Y1333D01*
G01X704Y1344D01*
G01X701Y1356D01*
G01X700Y1368D01*
G01X700Y6123D01*
G01X698Y6135D01*
G01X696Y6140D01*
G01X693Y6146D01*
G01X685Y6154D01*
G01X680Y6158D01*
G01X675Y6160D01*
G01X656Y6168D01*
G01X620Y6186D01*
G01X603Y6196D01*
G01X586Y6207D01*
G01X569Y6219D01*
G01X553Y6232D01*
G01X538Y6244D01*
G01X523Y6258D01*
G01X509Y6272D01*
G01X496Y6287D01*
G01X483Y6303D01*
G01X459Y6335D01*
G01X448Y6352D01*
G01X438Y6369D01*
G01X420Y6405D01*
G01X413Y6424D01*
G01X405Y6443D01*
G01X399Y6462D01*
G01X394Y6481D01*
G01X389Y6501D01*
G01X383Y6541D01*
G01X381Y6561D01*
G01X380Y6581D01*
G01X380Y6617D01*
G01X381Y6636D01*
G01X383Y6655D01*
G01X386Y6675D01*
G01X394Y6713D01*
G01X399Y6732D01*
G01X405Y6750D01*
G01X419Y6786D01*
G01X427Y6804D01*
G01X436Y6821D01*
G01X456Y6855D01*
G01X467Y6871D01*
G01X491Y6901D01*
G01X504Y6916D01*
G01X517Y6930D01*
G01X532Y6944D01*
G01X546Y6957D01*
G01X561Y6969D01*
G01X577Y6980D01*
G01X593Y6992D01*
G01X609Y7002D01*
G01X626Y7011D01*
G01X644Y7020D01*
G01X661Y7028D01*
G01X679Y7036D01*
G01X698Y7043D01*
G01X716Y7048D01*
G01X735Y7054D01*
G01X773Y7062D01*
G01X792Y7065D01*
G01X811Y7067D01*
G01X831Y7068D01*
G01X870Y7068D01*
G01X889Y7067D01*
G01X909Y7065D01*
G01X928Y7062D01*
G01X966Y7054D01*
G01X985Y7048D01*
G01X1003Y7043D01*
G01X1022Y7036D01*
G01X1040Y7028D01*
G01X1057Y7020D01*
G01X1075Y7011D01*
G01X1092Y7002D01*
G01X1108Y6992D01*
G01X1124Y6980D01*
G01X1140Y6969D01*
G01X1155Y6957D01*
G01X1169Y6944D01*
G01X1184Y6930D01*
G01X1197Y6916D01*
G01X1210Y6901D01*
G01X1234Y6871D01*
G01X1245Y6855D01*
G01X1265Y6821D01*
G01X1273Y6804D01*
G01X1282Y6786D01*
G01X1296Y6750D01*
G01X1302Y6732D01*
G01X1307Y6713D01*
G01X1315Y6675D01*
G01X1318Y6655D01*
G01X1320Y6636D01*
G01X1321Y6617D01*
G01X1321Y6577D01*
G01X1320Y6557D01*
G01X1318Y6537D01*
G01X1315Y6518D01*
G01X1311Y6498D01*
G01X1306Y6478D01*
G01X1301Y6459D01*
G01X1294Y6440D01*
G01X1288Y6422D01*
G01X1280Y6403D01*
G01X1271Y6385D01*
G01X1262Y6368D01*
G01X1252Y6351D01*
G01X1241Y6334D01*
G01X1229Y6317D01*
G01X1217Y6301D01*
G01X1191Y6271D01*
G01X1176Y6257D01*
G01X1162Y6244D01*
G01X1147Y6231D01*
G01X1115Y6207D01*
G01X1098Y6196D01*
G01X1080Y6186D01*
G01X1063Y6177D01*
G01X1045Y6168D01*
G01X1026Y6160D01*
G01X1021Y6158D01*
G01X1016Y6154D01*
G01X1008Y6146D01*
G01X1005Y6140D01*
G01X1003Y6135D01*
G01X1001Y6123D01*
G01X1001Y1459D01*
G01X1002Y1452D01*
G01X1003Y1446D01*
G01X1006Y1440D01*
G01X1009Y1435D01*
G01X1013Y1430D01*
G01X1488Y955D01*
G01X1493Y951D01*
G01X1498Y948D01*
G01X1510Y944D01*
G01X1522Y944D01*
G01X1528Y945D01*
G01X1533Y947D01*
G01X1538Y950D01*
G01X1542Y953D01*
G01X1547Y957D01*
G01X1553Y967D01*
G01X1555Y973D01*
G01X1556Y978D01*
G01X1556Y986D01*
G01X1558Y1030D01*
G01X1560Y1052D01*
G01X1563Y1074D01*
G01X1571Y1118D01*
G01X1576Y1139D01*
G01X1583Y1161D01*
G01X1590Y1182D01*
G01X1597Y1202D01*
G01X1606Y1223D01*
G01X1615Y1243D01*
G01X1625Y1263D01*
G01X1647Y1301D01*
G01X1659Y1320D01*
G01X1672Y1338D01*
G01X1686Y1355D01*
G01X1700Y1373D01*
G01X1730Y1405D01*
G01X1746Y1421D01*
G01X1763Y1435D01*
G01X1780Y1450D01*
G01X1797Y1463D01*
G01X1815Y1476D01*
G01X1834Y1488D01*
G01X1872Y1510D01*
G01X1892Y1520D01*
G01X1912Y1529D01*
G01X1933Y1538D01*
G01X1954Y1546D01*
G01X1975Y1553D01*
G01X1996Y1559D01*
G01X2017Y1564D01*
G01X2039Y1569D01*
G01X2083Y1575D01*
G01X2105Y1577D01*
G01X2127Y1578D01*
G01X2150Y1579D01*
G01X2171Y1578D01*
G01X2193Y1577D01*
G01X2215Y1575D01*
G01X2237Y1572D01*
G01X2258Y1569D01*
G01X2280Y1564D01*
G01X2301Y1559D01*
G01X2322Y1553D01*
G01X2343Y1546D01*
G01X2363Y1539D01*
G01X2384Y1531D01*
G01X2403Y1522D01*
G01X2429Y1509D01*
G01X2435Y1508D01*
G01X2442Y1507D01*
G01X2454Y1509D01*
G01X2459Y1512D01*
G01X2465Y1515D01*
G01X2470Y1519D01*
G01X4700Y3750D01*
G01X4704Y3755D01*
G01X4707Y3760D01*
G01X4710Y3766D01*
G01X4712Y3778D01*
G01X4710Y3790D01*
G01X4708Y3796D01*
G01X4705Y3801D01*
G01X4701Y3806D01*
G01X4696Y3810D01*
G01X4691Y3813D01*
G01X4685Y3816D01*
G01X4679Y3817D01*
G01X4660Y3821D01*
G01X4640Y3826D01*
G01X4602Y3838D01*
G01X4584Y3845D01*
G01X4565Y3853D01*
G01X4547Y3861D01*
G01X4513Y3881D01*
G01X4496Y3892D01*
G01X4480Y3903D01*
G01X4464Y3916D01*
G01X4434Y3942D01*
G01X4420Y3956D01*
G01X4394Y3986D01*
G01X4382Y4002D01*
G01X4370Y4019D01*
G01X4359Y4035D01*
G01X4350Y4052D01*
G01X4340Y4070D01*
G01X4324Y4106D01*
G01X4317Y4125D01*
G01X4305Y4163D01*
G01X4301Y4182D01*
G01X4297Y4202D01*
G01X4294Y4222D01*
G01X4292Y4242D01*
G01X4290Y4261D01*
G01X4290Y4301D01*
G01X4294Y4341D01*
G01X4297Y4361D01*
G01X4301Y4380D01*
G01X4305Y4400D01*
G01X4317Y4438D01*
G01X4324Y4457D01*
G01X4340Y4493D01*
G01X4350Y4511D01*
G01X4360Y4528D01*
G01X4371Y4545D01*
G01X4382Y4561D01*
G01X4395Y4577D01*
G01X4407Y4592D01*
G01X4421Y4607D01*
G01X4435Y4621D01*
G01X4450Y4635D01*
G01X4465Y4648D01*
G01X4481Y4660D01*
G01X4497Y4671D01*
G01X4514Y4682D01*
G01X4531Y4692D01*
G01X4549Y4702D01*
G01X4567Y4710D01*
G01X4586Y4718D01*
G01X4596Y4724D01*
G01X4600Y4728D01*
G01X4604Y4733D01*
G01X4606Y4738D01*
G01X4609Y4744D01*
G01X4610Y4750D01*
G01X4610Y6753D01*
G01X4609Y6759D01*
G01X4606Y6765D01*
G01X4603Y6770D01*
G01X4599Y6775D01*
G01X3974Y7399D01*
G01X3964Y7407D01*
G01X3952Y7411D01*
G01X3946Y7411D01*
G01X3938Y7410D01*
G01X3931Y7408D01*
G01X3912Y7401D01*
G01X3894Y7395D01*
G01X3875Y7389D01*
G01X3855Y7384D01*
G01X3817Y7378D01*
G01X3777Y7374D01*
G01X3738Y7374D01*
G01X3681Y7380D01*
G01X3643Y7388D01*
G01X3624Y7394D01*
G01X3606Y7400D01*
G01X3570Y7414D01*
G01X3536Y7432D01*
G01X3519Y7442D01*
G01X3503Y7452D01*
G01X3487Y7463D01*
G01X3471Y7475D01*
G01X3457Y7487D01*
G01X3442Y7501D01*
G01X3429Y7514D01*
G01X3416Y7528D01*
G01X3403Y7543D01*
G01X3392Y7559D01*
G01X3380Y7574D01*
G01X3370Y7590D01*
G01X3360Y7607D01*
G01X3351Y7624D01*
G01X3343Y7642D01*
G01X3335Y7659D01*
G01X3328Y7678D01*
G01X3322Y7696D01*
G01X3317Y7715D01*
G01X3313Y7733D01*
G01X3309Y7752D01*
G01X3306Y7771D01*
G01X3304Y7790D01*
G01X3303Y7810D01*
G01X3302Y7829D01*
G01X3303Y7851D01*
G01X3305Y7874D01*
G01X3307Y7896D01*
G01X3311Y7918D01*
G01X3316Y7939D01*
G01X3322Y7961D01*
G01X3328Y7982D01*
G01X3336Y8002D01*
G01X3339Y8009D01*
G01X3339Y8023D01*
G01X3338Y8030D01*
G01X3335Y8036D01*
G01X3332Y8041D01*
G01X3328Y8046D01*
G01X2044Y9329D01*
G01X2039Y9333D01*
G01X2034Y9336D01*
G01X2022Y9340D01*
G01X1986Y9340D01*
G01X1981Y9339D01*
G01X1976Y9337D01*
G01X1966Y9331D01*
G01X1962Y9327D01*
G01X1956Y9317D01*
G01X1947Y9300D01*
G01X1938Y9284D01*
G01X1928Y9267D01*
G01X1918Y9252D01*
G01X1907Y9237D01*
G01X1895Y9222D01*
G01X1869Y9194D01*
G01X1855Y9182D01*
G01X1840Y9169D01*
G01X1826Y9157D01*
G01X1810Y9147D01*
G01X1794Y9136D01*
G01X1778Y9127D01*
G01X1761Y9118D01*
G01X1744Y9111D01*
G01X1726Y9103D01*
G01X1709Y9097D01*
G01X1690Y9092D01*
G01X1672Y9087D01*
G01X1653Y9083D01*
G01X1635Y9080D01*
G01X1597Y9076D01*
G01X1402Y9076D01*
G01X1384Y9078D01*
G01X1365Y9080D01*
G01X1346Y9083D01*
G01X1328Y9086D01*
G01X1292Y9096D01*
G01X1275Y9103D01*
G01X1257Y9109D01*
G01X1240Y9117D01*
G01X1224Y9126D01*
G01X1207Y9135D01*
G01X1192Y9145D01*
G01X1176Y9155D01*
G01X1161Y9167D01*
G01X1133Y9191D01*
G01X1120Y9205D01*
G01X1107Y9218D01*
G01X1096Y9233D01*
G01X1084Y9248D01*
G01X1074Y9263D01*
G01X1064Y9279D01*
G01X1046Y9311D01*
G01X1038Y9328D01*
G01X1031Y9346D01*
G01X1025Y9363D01*
G01X1020Y9381D01*
G01X1015Y9400D01*
G01X1011Y9418D01*
G01X1009Y9436D01*
G01X1007Y9455D01*
G01X1005Y9473D01*
G01X1005Y9511D01*
G01X1007Y9529D01*
G01X1009Y9548D01*
G01X1011Y9566D01*
G01X1015Y9584D01*
G01X1020Y9603D01*
G01X1025Y9621D01*
G01X1031Y9638D01*
G01X1038Y9655D01*
G01X1046Y9673D01*
G01X1064Y9705D01*
G01X1074Y9721D01*
G01X1084Y9736D01*
G01X1096Y9751D01*
G01X1107Y9766D01*
G01X1120Y9780D01*
G01X1133Y9793D01*
G01X1161Y9817D01*
G01X1176Y9828D01*
G01X1192Y9839D01*
G01X1207Y9849D01*
G01X1224Y9858D01*
G01X1240Y9867D01*
G01X1257Y9875D01*
G01X1275Y9882D01*
G01X1292Y9888D01*
G01X1328Y9898D01*
G01X1346Y9901D01*
G01X1365Y9904D01*
G01X1384Y9906D01*
G01X1402Y9907D01*
G01X1421Y9908D01*
G01X1578Y9908D01*
G01X1616Y9906D01*
G01X1635Y9904D01*
G01X1654Y9901D01*
G01X1672Y9897D01*
G01X1691Y9892D01*
G01X1709Y9887D01*
G01X1727Y9880D01*
G01X1744Y9873D01*
G01X1778Y9857D01*
G01X1795Y9847D01*
G01X1811Y9837D01*
G01X1841Y9815D01*
G01X1869Y9789D01*
G01X1882Y9776D01*
G01X1895Y9761D01*
G01X1907Y9747D01*
G01X1918Y9732D01*
G01X1929Y9716D01*
G01X1939Y9700D01*
G01X1948Y9683D01*
G01X1956Y9666D01*
G01X1962Y9656D01*
G01X1966Y9652D01*
G01X1976Y9646D01*
G01X1981Y9644D01*
G01X1987Y9643D01*
G01X1992Y9642D01*
G01X2106Y9642D01*
G01X2118Y9641D01*
G01X2130Y9638D01*
G01X2141Y9635D01*
G01X2152Y9631D01*
G01X2163Y9626D01*
G01X2183Y9614D01*
G01X2201Y9598D01*
G01X3541Y8259D01*
G01X3546Y8255D01*
G01X3551Y8252D01*
G01X3557Y8249D01*
G01X3563Y8248D01*
G01X3577Y8248D01*
G01X3585Y8251D01*
G01X3603Y8257D01*
G01X3622Y8264D01*
G01X3660Y8274D01*
G01X3679Y8278D01*
G01X3699Y8281D01*
G01X3718Y8283D01*
G01X3738Y8284D01*
G01X3777Y8284D01*
G01X3796Y8283D01*
G01X3815Y8281D01*
G01X3834Y8278D01*
G01X3872Y8270D01*
G01X3891Y8265D01*
G01X3909Y8259D01*
G01X3927Y8252D01*
G01X3963Y8236D01*
G01X3980Y8227D01*
G01X3996Y8217D01*
G01X4013Y8207D01*
G01X4028Y8195D01*
G01X4044Y8184D01*
G01X4059Y8171D01*
G01X4073Y8158D01*
G01X4099Y8130D01*
G01X4112Y8115D01*
G01X4124Y8100D01*
G01X4135Y8084D01*
G01X4145Y8068D01*
G01X4155Y8051D01*
G01X4173Y8017D01*
G01X4187Y7981D01*
G01X4193Y7963D01*
G01X4203Y7925D01*
G01X4209Y7887D01*
G01X4211Y7868D01*
G01X4213Y7848D01*
G01X4213Y7809D01*
G01X4211Y7790D01*
G01X4209Y7770D01*
G01X4206Y7751D01*
G01X4202Y7732D01*
G01X4198Y7712D01*
G01X4192Y7694D01*
G01X4186Y7675D01*
G01X4179Y7657D01*
G01X4177Y7649D01*
G01X4176Y7641D01*
G01X4176Y7635D01*
G01X4180Y7623D01*
G01X4188Y7613D01*
G01X4868Y6932D01*
G01X4884Y6914D01*
G01X4896Y6894D01*
G01X4901Y6883D01*
G01X4905Y6872D01*
G01X4908Y6861D01*
G01X4911Y6849D01*
G01X4912Y6837D01*
G01X4913Y6826D01*
G01X4913Y4749D01*
G01X4914Y4743D01*
G01X4916Y4738D01*
G01X4919Y4733D01*
G01X4923Y4728D01*
G01X4927Y4724D01*
G01X4932Y4721D01*
G01X4938Y4718D01*
G01X4956Y4710D01*
G01X4974Y4701D01*
G01X4991Y4692D01*
G01X5008Y4682D01*
G01X5025Y4671D01*
G01X5041Y4660D01*
G01X5057Y4648D01*
G01X5072Y4635D01*
G01X5087Y4621D01*
G01X5101Y4607D01*
G01X5114Y4593D01*
G01X5127Y4578D01*
G01X5151Y4546D01*
G01X5161Y4529D01*
G01X5172Y4512D01*
G01X5181Y4495D01*
G01X5197Y4459D01*
G01X5205Y4440D01*
G01X5211Y4421D01*
G01X5221Y4383D01*
G01X5225Y4363D01*
G01X5227Y4357D01*
G01X5229Y4352D01*
G01X5232Y4346D01*
G01X5236Y4342D01*
G01X5241Y4338D01*
G01X5246Y4335D01*
G01X5252Y4332D01*
G01X5264Y4330D01*
G01X5271Y4331D01*
G01X5277Y4332D01*
G01X5282Y4335D01*
G01X5288Y4338D01*
G01X5293Y4342D01*
G01X5491Y4540D01*
G01X5509Y4556D01*
G01X5529Y4568D01*
G01X5540Y4573D01*
G01X5551Y4577D01*
G01X5562Y4580D01*
G01X5574Y4583D01*
G01X5586Y4584D01*
G01X6031Y4584D01*
G01X6043Y4586D01*
G01X6048Y4588D01*
G01X6058Y4594D01*
G01X6062Y4598D01*
G01X6068Y4608D01*
G01X6070Y4613D01*
G01X6072Y4625D01*
G01X6072Y4689D01*
G01X6070Y4701D01*
G01X6068Y4707D01*
G01X6065Y4712D01*
G01X6057Y4720D01*
G01X6052Y4724D01*
G01X6047Y4726D01*
G01X6028Y4734D01*
G01X6010Y4743D01*
G01X5993Y4752D01*
G01X5975Y4762D01*
G01X5959Y4773D01*
G01X5942Y4785D01*
G01X5927Y4797D01*
G01X5911Y4810D01*
G01X5897Y4823D01*
G01X5882Y4838D01*
G01X5869Y4852D01*
G01X5856Y4867D01*
G01X5844Y4883D01*
G01X5832Y4900D01*
G01X5822Y4917D01*
G01X5811Y4934D01*
G01X5802Y4951D01*
G01X5794Y4969D01*
G01X5786Y4988D01*
G01X5779Y5006D01*
G01X5772Y5025D01*
G01X5767Y5044D01*
G01X5759Y5084D01*
G01X5756Y5103D01*
G01X5752Y5143D01*
G01X5752Y5182D01*
G01X5753Y5202D01*
G01X5756Y5221D01*
G01X5758Y5240D01*
G01X5762Y5260D01*
G01X5766Y5279D01*
G01X5772Y5298D01*
G01X5777Y5316D01*
G01X5784Y5334D01*
G01X5800Y5370D01*
G01X5818Y5404D01*
G01X5829Y5421D01*
G01X5839Y5437D01*
G01X5851Y5452D01*
G01X5864Y5467D01*
G01X5876Y5482D01*
G01X5890Y5496D01*
G01X5904Y5509D01*
G01X5918Y5523D01*
G01X5934Y5535D01*
G01X5949Y5546D01*
G01X5965Y5557D01*
G01X5982Y5568D01*
G01X6016Y5586D01*
G01X6052Y5602D01*
G01X6070Y5609D01*
G01X6089Y5615D01*
G01X6107Y5620D01*
G01X6145Y5628D01*
G01X6165Y5630D01*
G01X6203Y5634D01*
G01X6242Y5634D01*
G01X6262Y5632D01*
G01X6281Y5630D01*
G01X6301Y5628D01*
G01X6319Y5624D01*
G01X6339Y5620D01*
G01X6357Y5615D01*
G01X6376Y5609D01*
G01X6394Y5602D01*
G01X6430Y5586D01*
G01X6464Y5568D01*
G01X6481Y5557D01*
G01X6497Y5546D01*
G01X6512Y5535D01*
G01X6527Y5523D01*
G01X6542Y5509D01*
G01X6556Y5496D01*
G01X6569Y5482D01*
G01X6595Y5452D01*
G01X6606Y5437D01*
G01X6617Y5421D01*
G01X6637Y5387D01*
G01X6646Y5370D01*
G01X6662Y5334D01*
G01X6674Y5298D01*
G01X6680Y5279D01*
G01X6684Y5260D01*
G01X6688Y5240D01*
G01X6692Y5202D01*
G01X6693Y5182D01*
G01X6694Y5163D01*
G01X6692Y5121D01*
G01X6690Y5100D01*
G01X6682Y5058D01*
G01X6677Y5038D01*
G01X6671Y5017D01*
G01X6657Y4981D01*
G01X6649Y4963D01*
G01X6640Y4945D01*
G01X6631Y4928D01*
G01X6621Y4911D01*
G01X6599Y4879D01*
G01X6586Y4864D01*
G01X6574Y4849D01*
G01X6560Y4834D01*
G01X6546Y4821D01*
G01X6532Y4807D01*
G01X6517Y4795D01*
G01X6501Y4783D01*
G01X6469Y4761D01*
G01X6452Y4751D01*
G01X6434Y4742D01*
G01X6417Y4734D01*
G01X6398Y4726D01*
G01X6388Y4720D01*
G01X6384Y4716D01*
G01X6380Y4711D01*
G01X6377Y4706D01*
G01X6375Y4701D01*
G01X6373Y4689D01*
G01X6373Y4513D01*
G01X6374Y4507D01*
G01X6376Y4500D01*
G01X6378Y4494D01*
G01X6381Y4489D01*
G01X6385Y4484D01*
G01X6795Y4075D01*
G01X6800Y4071D01*
G01X6805Y4068D01*
G01X6811Y4065D01*
G01X6823Y4063D01*
G01X6831Y4064D01*
G01X6838Y4067D01*
G01X6857Y4074D01*
G01X6876Y4080D01*
G01X6894Y4086D01*
G01X6914Y4090D01*
G01X6933Y4094D01*
G01X6952Y4097D01*
G01X6972Y4099D01*
G01X6992Y4100D01*
G01X7011Y4101D01*
G01X7031Y4100D01*
G01X7050Y4099D01*
G01X7069Y4097D01*
G01X7088Y4094D01*
G01X7126Y4086D01*
G01X7145Y4081D01*
G01X7163Y4075D01*
G01X7181Y4068D01*
G01X7199Y4060D01*
G01X7216Y4052D01*
G01X7233Y4043D01*
G01X7250Y4033D01*
G01X7266Y4023D01*
G01X7282Y4011D01*
G01X7297Y4000D01*
G01X7312Y3987D01*
G01X7340Y3961D01*
G01X7353Y3946D01*
G01X7377Y3916D01*
G01X7389Y3900D01*
G01X7399Y3884D01*
G01X7409Y3867D01*
G01X7418Y3850D01*
G01X7426Y3833D01*
G01X7434Y3815D01*
G01X7441Y3797D01*
G01X7447Y3779D01*
G01X7452Y3760D01*
G01X7460Y3722D01*
G01X7463Y3703D01*
G01X7465Y3684D01*
G01X7466Y3665D01*
G01X7467Y3645D01*
G01X7465Y3607D01*
G01X7463Y3588D01*
G01X7460Y3568D01*
G01X7456Y3550D01*
G01X7452Y3531D01*
G01X7447Y3512D01*
G01X7441Y3494D01*
G01X7434Y3476D01*
G01X7418Y3440D01*
G01X7409Y3423D01*
G01X7399Y3407D01*
G01X7389Y3390D01*
G01X7377Y3375D01*
G01X7365Y3359D01*
G01X7353Y3344D01*
G01X7340Y3330D01*
G01X7326Y3317D01*
G01X7312Y3303D01*
G01X7282Y3279D01*
G01X7266Y3268D01*
G01X7250Y3258D01*
G01X7233Y3248D01*
G01X7199Y3230D01*
G01X7163Y3216D01*
G01X7145Y3210D01*
G01X7107Y3200D01*
G01X7088Y3196D01*
G01X7031Y3190D01*
G01X6992Y3190D01*
G01X6952Y3194D01*
G01X6933Y3197D01*
G01X6895Y3205D01*
G01X6857Y3217D01*
G01X6839Y3224D01*
G01X6803Y3240D01*
G01X6769Y3260D01*
G01X6737Y3282D01*
G01X6722Y3294D01*
G01X6707Y3307D01*
G01X6692Y3321D01*
G01X6678Y3335D01*
G01X6665Y3350D01*
G01X6652Y3366D01*
G01X6640Y3382D01*
G01X6629Y3398D01*
G01X6618Y3415D01*
G01X6591Y3469D01*
G01X6577Y3507D01*
G01X6572Y3526D01*
G01X6567Y3546D01*
G01X6563Y3565D01*
G01X6560Y3585D01*
G01X6556Y3625D01*
G01X6556Y3665D01*
G01X6558Y3685D01*
G01X6560Y3704D01*
G01X6563Y3724D01*
G01X6571Y3762D01*
G01X6583Y3800D01*
G01X6590Y3818D01*
G01X6592Y3826D01*
G01X6593Y3834D01*
G01X6593Y3840D01*
G01X6591Y3846D01*
G01X6589Y3851D01*
G01X6585Y3857D01*
G01X6581Y3862D01*
G01X6172Y4271D01*
G01X6167Y4275D01*
G01X6162Y4278D01*
G01X6150Y4282D01*
G01X5670Y4282D01*
G01X5664Y4280D01*
G01X5659Y4278D01*
G01X5653Y4275D01*
G01X5648Y4271D01*
G01X2683Y1306D01*
G01X2679Y1301D01*
G01X2676Y1296D01*
G01X2673Y1290D01*
G01X2672Y1284D01*
G01X2671Y1277D01*
G01X2673Y1265D01*
G01X2686Y1239D01*
G01X2695Y1219D01*
G01X2703Y1199D01*
G01X2710Y1179D01*
G01X2717Y1158D01*
G01X2723Y1137D01*
G01X2728Y1116D01*
G01X2732Y1094D01*
G01X2736Y1073D01*
G01X2739Y1051D01*
G01X2741Y1029D01*
G01X2742Y1007D01*
G01X2743Y986D01*
G01X2742Y963D01*
G01X2741Y942D01*
G01X2739Y919D01*
G01X2736Y898D01*
G01X2728Y854D01*
G01X2723Y832D01*
G01X2717Y811D01*
G01X2709Y790D01*
G01X2702Y769D01*
G01X2684Y729D01*
G01X2674Y709D01*
G01X2652Y671D01*
G01X2640Y652D01*
G01X2627Y634D01*
G01X2614Y617D01*
G01X2600Y600D01*
G01X2585Y583D01*
G01X2570Y567D01*
G01X2554Y552D01*
G01X2546Y542D01*
G01X2543Y535D01*
G01X2541Y523D01*
G01X2543Y511D01*
G01X2545Y506D01*
G01X2551Y496D01*
G01X2555Y492D01*
G01X2559Y489D01*
G01X2565Y486D01*
G01X2570Y484D01*
G01X2576Y483D01*
G01X2581Y482D01*
G01X3887Y482D01*
G01X3894Y483D01*
G01X3900Y484D01*
G01X3905Y487D01*
G01X3911Y490D01*
G01X3916Y494D01*
G01X4158Y737D01*
G01X4162Y742D01*
G01X4165Y747D01*
G01X4168Y753D01*
G01X4170Y765D01*
G01X4169Y773D01*
G01X4167Y780D01*
G01X4159Y799D01*
G01X4153Y817D01*
G01X4148Y836D01*
G01X4143Y856D01*
G01X4139Y875D01*
G01X4136Y894D01*
G01X4134Y914D01*
G01X4132Y954D01*
G01X4134Y992D01*
G01X4136Y1011D01*
G01X4139Y1031D01*
G01X4142Y1050D01*
G01X4147Y1068D01*
G01X4152Y1087D01*
G01X4158Y1105D01*
G01X4165Y1123D01*
G01X4181Y1159D01*
G01X4190Y1176D01*
G01X4200Y1192D01*
G01X4211Y1209D01*
G01X4222Y1225D01*
G01X4246Y1255D01*
G01X4259Y1269D01*
G01X4273Y1282D01*
G01X4287Y1296D01*
G01X4317Y1320D01*
G01X4333Y1331D01*
G01X4349Y1341D01*
G01X4366Y1351D01*
G01X4400Y1369D01*
G01X4436Y1383D01*
G01X4454Y1389D01*
G01X4492Y1399D01*
G01X4511Y1403D01*
G01X4568Y1409D01*
G01X4607Y1409D01*
G01X4626Y1407D01*
G01X4646Y1405D01*
G01X4665Y1403D01*
G01X4684Y1399D01*
G01X4702Y1394D01*
G01X4721Y1389D01*
G01X4739Y1383D01*
G01X4775Y1369D01*
G01X4793Y1360D01*
G01X4810Y1351D01*
G01X4827Y1341D01*
G01X4843Y1331D01*
G01X4859Y1320D01*
G01X4889Y1296D01*
G01X4903Y1282D01*
G01X4917Y1269D01*
G01X4930Y1255D01*
G01X4954Y1225D01*
G01X4965Y1209D01*
G01X4976Y1192D01*
G01X4985Y1176D01*
G01X4994Y1159D01*
G01X5010Y1123D01*
G01X5017Y1105D01*
G01X5023Y1087D01*
G01X5028Y1068D01*
G01X5033Y1050D01*
G01X5036Y1031D01*
G01X5039Y1011D01*
G01X5043Y973D01*
G01X5043Y934D01*
G01X5039Y896D01*
G01X5033Y858D01*
G01X5023Y820D01*
G01X5017Y802D01*
G01X5010Y784D01*
G01X5002Y766D01*
G01X4994Y749D01*
G01X4976Y715D01*
G01X4954Y683D01*
G01X4930Y653D01*
G01X4917Y638D01*
G01X4889Y612D01*
G01X4874Y599D01*
G01X4859Y588D01*
G01X4843Y576D01*
G01X4827Y566D01*
G01X4810Y556D01*
G01X4793Y547D01*
G01X4757Y531D01*
G01X4739Y524D01*
G01X4721Y518D01*
G01X4702Y513D01*
G01X4684Y509D01*
G01X4665Y505D01*
G01X4646Y502D01*
G01X4626Y500D01*
G01X4588Y498D01*
G01X4548Y500D01*
G01X4529Y502D01*
G01X4509Y505D01*
G01X4471Y513D01*
G01X4452Y519D01*
G01X4434Y525D01*
G01X4415Y532D01*
G01X4408Y534D01*
G01X4400Y535D01*
G01X4394Y535D01*
G01X4382Y531D01*
G01X4376Y528D01*
G01X4372Y523D01*
G01X4116Y268D01*
G01X4112Y263D01*
G01X4109Y258D01*
G01X4105Y246D01*
G01X4105Y234D01*
G01X4106Y228D01*
G01X4108Y223D01*
G01X4114Y213D01*
G01X4118Y209D01*
G01X4128Y203D01*
G01X4133Y201D01*
G01X4139Y200D01*
G01X15850Y200D01*
G01X15859Y198D01*
G01X15864Y199D01*
G01X15870Y200D01*
G01X15875Y202D01*
G01X15885Y208D01*
G01X15889Y212D01*
G01X15895Y222D01*
G01X15897Y227D01*
G01X15898Y233D01*
G01X15898Y10515D01*
G01X15897Y10521D01*
G01X15895Y10526D01*
G01X15889Y10536D01*
G01X15885Y10540D01*
G01X15875Y10546D01*
G01X15870Y10548D01*
G01X15864Y10549D01*
G01X15859Y10550D01*
G37*

%LPC*%
G36*
G01X4019Y9255D02*
G01X3980Y9255D01*
G01X3961Y9253D01*
G01X3941Y9251D01*
G01X3922Y9248D01*
G01X3884Y9240D01*
G01X3865Y9234D01*
G01X3847Y9228D01*
G01X3828Y9221D01*
G01X3811Y9214D01*
G01X3793Y9205D01*
G01X3776Y9196D01*
G01X3759Y9186D01*
G01X3743Y9176D01*
G01X3711Y9152D01*
G01X3697Y9140D01*
G01X3682Y9126D01*
G01X3669Y9113D01*
G01X3643Y9083D01*
G01X3632Y9067D01*
G01X3620Y9051D01*
G01X3610Y9035D01*
G01X3600Y9018D01*
G01X3591Y9001D01*
G01X3583Y8983D01*
G01X3569Y8947D01*
G01X3563Y8928D01*
G01X3558Y8910D01*
G01X3553Y8888D01*
G01X3549Y8866D01*
G01X3546Y8844D01*
G01X3544Y8800D01*
G01X3544Y8780D01*
G01X3548Y8742D01*
G01X3551Y8723D01*
G01X3554Y8703D01*
G01X3559Y8685D01*
G01X3564Y8666D01*
G01X3570Y8648D01*
G01X3584Y8612D01*
G01X3593Y8594D01*
G01X3602Y8578D01*
G01X3622Y8544D01*
G01X3634Y8529D01*
G01X3645Y8513D01*
G01X3658Y8499D01*
G01X3671Y8484D01*
G01X3684Y8471D01*
G01X3699Y8458D01*
G01X3713Y8445D01*
G01X3729Y8434D01*
G01X3744Y8422D01*
G01X3778Y8402D01*
G01X3794Y8393D01*
G01X3812Y8384D01*
G01X3848Y8370D01*
G01X3866Y8364D01*
G01X3885Y8359D01*
G01X3903Y8354D01*
G01X3923Y8351D01*
G01X3942Y8348D01*
G01X3980Y8344D01*
G01X4019Y8344D01*
G01X4057Y8348D01*
G01X4076Y8351D01*
G01X4094Y8354D01*
G01X4113Y8359D01*
G01X4131Y8364D01*
G01X4150Y8369D01*
G01X4167Y8376D01*
G01X4185Y8384D01*
G01X4202Y8392D01*
G01X4236Y8410D01*
G01X4252Y8421D01*
G01X4267Y8432D01*
G01X4283Y8443D01*
G01X4298Y8455D01*
G01X4312Y8468D01*
G01X4325Y8481D01*
G01X4338Y8495D01*
G01X4351Y8510D01*
G01X4363Y8525D01*
G01X4374Y8540D01*
G01X4384Y8556D01*
G01X4394Y8573D01*
G01X4403Y8589D01*
G01X4412Y8607D01*
G01X4420Y8624D01*
G01X4422Y8629D01*
G01X4426Y8634D01*
G01X4434Y8642D01*
G01X4440Y8645D01*
G01X4445Y8647D01*
G01X4451Y8648D01*
G01X4717Y8648D01*
G01X4723Y8646D01*
G01X4728Y8644D01*
G01X4734Y8641D01*
G01X4739Y8637D01*
G01X5721Y7655D01*
G01X5725Y7650D01*
G01X5728Y7645D01*
G01X5732Y7633D01*
G01X5732Y7621D01*
G01X5731Y7615D01*
G01X5728Y7609D01*
G01X5725Y7604D01*
G01X5722Y7600D01*
G01X5717Y7596D01*
G01X5713Y7592D01*
G01X5707Y7590D01*
G01X5702Y7588D01*
G01X5696Y7587D01*
G01X5676Y7585D01*
G01X5656Y7582D01*
G01X5637Y7578D01*
G01X5617Y7573D01*
G01X5579Y7561D01*
G01X5561Y7554D01*
G01X5542Y7546D01*
G01X5524Y7538D01*
G01X5490Y7518D01*
G01X5473Y7507D01*
G01X5457Y7496D01*
G01X5441Y7484D01*
G01X5426Y7471D01*
G01X5411Y7457D01*
G01X5397Y7443D01*
G01X5371Y7413D01*
G01X5347Y7381D01*
G01X5336Y7364D01*
G01X5326Y7347D01*
G01X5317Y7329D01*
G01X5301Y7293D01*
G01X5293Y7274D01*
G01X5287Y7255D01*
G01X5277Y7217D01*
G01X5273Y7197D01*
G01X5271Y7178D01*
G01X5268Y7157D01*
G01X5267Y7138D01*
G01X5267Y7098D01*
G01X5268Y7079D01*
G01X5271Y7059D01*
G01X5273Y7040D01*
G01X5281Y7002D01*
G01X5286Y6983D01*
G01X5292Y6965D01*
G01X5299Y6946D01*
G01X5306Y6928D01*
G01X5333Y6877D01*
G01X5343Y6860D01*
G01X5355Y6844D01*
G01X5366Y6828D01*
G01X5378Y6813D01*
G01X5391Y6799D01*
G01X5419Y6771D01*
G01X5434Y6758D01*
G01X5448Y6746D01*
G01X5464Y6734D01*
G01X5480Y6723D01*
G01X5514Y6703D01*
G01X5531Y6695D01*
G01X5549Y6686D01*
G01X5585Y6672D01*
G01X5603Y6666D01*
G01X5622Y6661D01*
G01X5660Y6653D01*
G01X5680Y6650D01*
G01X5699Y6648D01*
G01X5718Y6647D01*
G01X5758Y6647D01*
G01X5778Y6648D01*
G01X5797Y6651D01*
G01X5817Y6653D01*
G01X5837Y6657D01*
G01X5875Y6667D01*
G01X5894Y6673D01*
G01X5913Y6680D01*
G01X5931Y6688D01*
G01X5967Y6706D01*
G01X5984Y6716D01*
G01X6001Y6727D01*
G01X6017Y6738D01*
G01X6033Y6751D01*
G01X6048Y6763D01*
G01X6063Y6777D01*
G01X6077Y6791D01*
G01X6103Y6821D01*
G01X6116Y6837D01*
G01X6138Y6869D01*
G01X6148Y6887D01*
G01X6158Y6904D01*
G01X6174Y6940D01*
G01X6188Y6978D01*
G01X6193Y6997D01*
G01X6198Y7017D01*
G01X6202Y7036D01*
G01X6205Y7056D01*
G01X6207Y7076D01*
G01X6208Y7082D01*
G01X6212Y7092D01*
G01X6220Y7102D01*
G01X6230Y7108D01*
G01X6235Y7110D01*
G01X6241Y7112D01*
G01X6247Y7112D01*
G01X6259Y7110D01*
G01X6265Y7108D01*
G01X6270Y7105D01*
G01X6275Y7100D01*
G01X8747Y4629D01*
G01X8751Y4624D01*
G01X8754Y4619D01*
G01X8758Y4607D01*
G01X8758Y4594D01*
G01X8754Y4582D01*
G01X8746Y4572D01*
G01X8732Y4558D01*
G01X8719Y4544D01*
G01X8707Y4528D01*
G01X8695Y4513D01*
G01X8684Y4496D01*
G01X8673Y4480D01*
G01X8663Y4463D01*
G01X8654Y4445D01*
G01X8638Y4409D01*
G01X8631Y4391D01*
G01X8625Y4372D01*
G01X8615Y4334D01*
G01X8612Y4315D01*
G01X8609Y4295D01*
G01X8607Y4275D01*
G01X8606Y4256D01*
G01X8605Y4236D01*
G01X8606Y4217D01*
G01X8607Y4197D01*
G01X8611Y4159D01*
G01X8615Y4139D01*
G01X8619Y4120D01*
G01X8625Y4101D01*
G01X8637Y4065D01*
G01X8653Y4029D01*
G01X8662Y4012D01*
G01X8682Y3978D01*
G01X8693Y3962D01*
G01X8704Y3947D01*
G01X8730Y3917D01*
G01X8743Y3903D01*
G01X8757Y3890D01*
G01X8772Y3876D01*
G01X8787Y3864D01*
G01X8802Y3853D01*
G01X8818Y3842D01*
G01X8835Y3831D01*
G01X8869Y3813D01*
G01X8905Y3797D01*
G01X8923Y3790D01*
G01X8942Y3784D01*
G01X8960Y3779D01*
G01X8980Y3775D01*
G01X8998Y3771D01*
G01X9018Y3769D01*
G01X9037Y3767D01*
G01X9057Y3765D01*
G01X9096Y3765D01*
G01X9116Y3767D01*
G01X9135Y3769D01*
G01X9155Y3772D01*
G01X9174Y3775D01*
G01X9194Y3780D01*
G01X9213Y3785D01*
G01X9231Y3791D01*
G01X9250Y3798D01*
G01X9268Y3806D01*
G01X9304Y3824D01*
G01X9338Y3844D01*
G01X9354Y3855D01*
G01X9369Y3867D01*
G01X9375Y3871D01*
G01X9381Y3874D01*
G01X9388Y3876D01*
G01X9400Y3876D01*
G01X9406Y3875D01*
G01X9411Y3873D01*
G01X9421Y3867D01*
G01X9425Y3863D01*
G01X9431Y3853D01*
G01X9433Y3848D01*
G01X9435Y3836D01*
G01X9435Y3655D01*
G01X9434Y3648D01*
G01X9430Y3636D01*
G01X9427Y3631D01*
G01X9423Y3626D01*
G01X8393Y2597D01*
G01X8385Y2589D01*
G01X8377Y2579D01*
G01X8365Y2559D01*
G01X8360Y2548D01*
G01X8356Y2537D01*
G01X8353Y2526D01*
G01X8350Y2514D01*
G01X8348Y2490D01*
G01X8348Y1515D01*
G01X8347Y1509D01*
G01X8345Y1504D01*
G01X8339Y1494D01*
G01X8335Y1490D01*
G01X8325Y1484D01*
G01X8320Y1482D01*
G01X8314Y1481D01*
G01X8309Y1480D01*
G01X8297Y1482D01*
G01X8292Y1484D01*
G01X8282Y1490D01*
G01X8268Y1502D01*
G01X8253Y1514D01*
G01X8238Y1524D01*
G01X8206Y1544D01*
G01X8189Y1552D01*
G01X8189Y1321D01*
G01X8314Y1321D01*
G01X8320Y1320D01*
G01X8325Y1318D01*
G01X8330Y1315D01*
G01X8335Y1311D01*
G01X8339Y1307D01*
G01X8342Y1303D01*
G01X8345Y1298D01*
G01X8347Y1293D01*
G01X8348Y1287D01*
G01X8348Y912D01*
G01X8347Y906D01*
G01X8345Y901D01*
G01X8342Y896D01*
G01X8339Y892D01*
G01X8335Y888D01*
G01X8330Y884D01*
G01X8325Y881D01*
G01X8320Y879D01*
G01X8314Y878D01*
G01X8189Y878D01*
G01X8189Y647D01*
G01X8206Y655D01*
G01X8238Y675D01*
G01X8254Y686D01*
G01X8268Y697D01*
G01X8283Y709D01*
G01X8297Y722D01*
G01X8310Y736D01*
G01X8334Y764D01*
G01X8350Y784D01*
G01X8355Y788D01*
G01X8360Y791D01*
G01X8366Y794D01*
G01X8378Y796D01*
G01X8390Y794D01*
G01X8396Y792D01*
G01X8402Y788D01*
G01X8406Y784D01*
G01X8773Y419D01*
G01X8781Y411D01*
G01X8791Y403D01*
G01X8811Y391D01*
G01X8822Y386D01*
G01X8833Y382D01*
G01X8844Y379D01*
G01X8856Y376D01*
G01X8868Y375D01*
G01X10133Y375D01*
G01X10145Y376D01*
G01X10157Y379D01*
G01X10168Y382D01*
G01X10179Y386D01*
G01X10190Y391D01*
G01X10210Y403D01*
G01X10228Y419D01*
G01X10675Y865D01*
G01X10685Y873D01*
G01X10697Y877D01*
G01X10703Y877D01*
G01X10711Y876D01*
G01X10718Y874D01*
G01X10737Y867D01*
G01X10775Y855D01*
G01X10813Y847D01*
G01X10832Y844D01*
G01X10872Y840D01*
G01X10911Y840D01*
G01X10930Y842D01*
G01X10950Y844D01*
G01X10969Y846D01*
G01X10988Y850D01*
G01X11006Y855D01*
G01X11025Y860D01*
G01X11043Y866D01*
G01X11079Y880D01*
G01X11097Y889D01*
G01X11114Y898D01*
G01X11130Y908D01*
G01X11147Y918D01*
G01X11163Y929D01*
G01X11193Y953D01*
G01X11234Y994D01*
G01X11246Y1009D01*
G01X11258Y1025D01*
G01X11269Y1040D01*
G01X11279Y1057D01*
G01X11289Y1073D01*
G01X11298Y1090D01*
G01X11314Y1126D01*
G01X11321Y1144D01*
G01X11327Y1162D01*
G01X11337Y1200D01*
G01X11343Y1238D01*
G01X11347Y1276D01*
G01X11347Y1315D01*
G01X11343Y1353D01*
G01X11337Y1391D01*
G01X11327Y1429D01*
G01X11321Y1447D01*
G01X11314Y1465D01*
G01X11306Y1483D01*
G01X11298Y1500D01*
G01X11289Y1517D01*
G01X11279Y1534D01*
G01X11269Y1550D01*
G01X11258Y1566D01*
G01X11246Y1582D01*
G01X11234Y1596D01*
G01X11220Y1611D01*
G01X11207Y1624D01*
G01X11193Y1637D01*
G01X11178Y1650D01*
G01X11163Y1661D01*
G01X11147Y1673D01*
G01X11130Y1683D01*
G01X11114Y1693D01*
G01X11097Y1702D01*
G01X11061Y1718D01*
G01X11043Y1725D01*
G01X11025Y1731D01*
G01X11006Y1736D01*
G01X10988Y1740D01*
G01X10969Y1744D01*
G01X10950Y1747D01*
G01X10930Y1749D01*
G01X10892Y1751D01*
G01X10872Y1750D01*
G01X10853Y1749D01*
G01X10834Y1747D01*
G01X10815Y1744D01*
G01X10777Y1736D01*
G01X10758Y1731D01*
G01X10740Y1725D01*
G01X10722Y1718D01*
G01X10704Y1710D01*
G01X10687Y1702D01*
G01X10669Y1693D01*
G01X10637Y1673D01*
G01X10621Y1661D01*
G01X10606Y1650D01*
G01X10591Y1637D01*
G01X10563Y1611D01*
G01X10550Y1596D01*
G01X10537Y1582D01*
G01X10526Y1566D01*
G01X10514Y1550D01*
G01X10504Y1534D01*
G01X10494Y1517D01*
G01X10485Y1500D01*
G01X10477Y1483D01*
G01X10469Y1465D01*
G01X10462Y1447D01*
G01X10456Y1429D01*
G01X10451Y1410D01*
G01X10443Y1372D01*
G01X10440Y1353D01*
G01X10438Y1334D01*
G01X10437Y1315D01*
G01X10436Y1295D01*
G01X10437Y1276D01*
G01X10438Y1256D01*
G01X10440Y1236D01*
G01X10443Y1217D01*
G01X10447Y1198D01*
G01X10452Y1178D01*
G01X10457Y1160D01*
G01X10463Y1141D01*
G01X10470Y1123D01*
G01X10472Y1115D01*
G01X10473Y1107D01*
G01X10473Y1101D01*
G01X10469Y1089D01*
G01X10466Y1084D01*
G01X10462Y1079D01*
G01X10071Y688D01*
G01X10066Y684D01*
G01X10060Y681D01*
G01X10055Y678D01*
G01X10049Y677D01*
G01X10042Y676D01*
G01X9331Y676D01*
G01X9326Y677D01*
G01X9320Y678D01*
G01X9315Y680D01*
G01X9310Y683D01*
G01X9306Y686D01*
G01X9301Y690D01*
G01X9295Y700D01*
G01X9293Y705D01*
G01X9292Y711D01*
G01X9292Y722D01*
G01X9293Y728D01*
G01X9295Y734D01*
G01X9298Y738D01*
G01X9326Y773D01*
G01X9337Y788D01*
G01X9347Y804D01*
G01X9356Y821D01*
G01X9365Y837D01*
G01X9373Y855D01*
G01X9381Y872D01*
G01X9393Y908D01*
G01X9397Y927D01*
G01X9401Y945D01*
G01X9404Y964D01*
G01X9406Y983D01*
G01X9408Y1021D01*
G01X9408Y1178D01*
G01X9407Y1198D01*
G01X9406Y1217D01*
G01X9404Y1236D01*
G01X9401Y1255D01*
G01X9400Y1263D01*
G01X9402Y1275D01*
G01X9404Y1281D01*
G01X9412Y1291D01*
G01X11830Y3711D01*
G01X11838Y3719D01*
G01X11846Y3728D01*
G01X11852Y3738D01*
G01X11858Y3747D01*
G01X11863Y3758D01*
G01X11867Y3768D01*
G01X11871Y3779D01*
G01X11874Y3790D01*
G01X11876Y3801D01*
G01X11877Y3813D01*
G01X11877Y5942D01*
G01X11878Y5947D01*
G01X11879Y5953D01*
G01X11881Y5959D01*
G01X11884Y5963D01*
G01X11888Y5968D01*
G01X11892Y5972D01*
G01X11897Y5976D01*
G01X11902Y5978D01*
G01X11919Y5986D01*
G01X11937Y5995D01*
G01X11971Y6015D01*
G01X12003Y6037D01*
G01X12018Y6049D01*
G01X12033Y6062D01*
G01X12061Y6090D01*
G01X12074Y6104D01*
G01X12086Y6119D01*
G01X12090Y6123D01*
G01X12095Y6127D01*
G01X12100Y6130D01*
G01X12106Y6132D01*
G01X12111Y6134D01*
G01X12123Y6134D01*
G01X12129Y6133D01*
G01X12134Y6131D01*
G01X12144Y6125D01*
G01X12148Y6121D01*
G01X12154Y6111D01*
G01X12156Y6106D01*
G01X12157Y6100D01*
G01X12157Y2676D01*
G01X12158Y2665D01*
G01X12159Y2653D01*
G01X12162Y2641D01*
G01X12165Y2630D01*
G01X12169Y2619D01*
G01X12174Y2608D01*
G01X12186Y2588D01*
G01X12194Y2578D01*
G01X13416Y1356D01*
G01X13420Y1351D01*
G01X13423Y1346D01*
G01X13426Y1340D01*
G01X13427Y1334D01*
G01X13427Y1321D01*
G01X13426Y1315D01*
G01X13413Y1289D01*
G01X13404Y1269D01*
G01X13396Y1249D01*
G01X13389Y1229D01*
G01X13382Y1208D01*
G01X13376Y1187D01*
G01X13371Y1166D01*
G01X13367Y1144D01*
G01X13363Y1123D01*
G01X13360Y1101D01*
G01X13358Y1079D01*
G01X13357Y1057D01*
G01X13356Y1036D01*
G01X13357Y1013D01*
G01X13358Y991D01*
G01X13360Y969D01*
G01X13363Y947D01*
G01X13367Y926D01*
G01X13371Y904D01*
G01X13377Y882D01*
G01X13383Y861D01*
G01X13397Y819D01*
G01X13406Y798D01*
G01X13415Y778D01*
G01X13425Y759D01*
G01X13436Y739D01*
G01X13447Y720D01*
G01X13460Y701D01*
G01X13472Y684D01*
G01X13486Y666D01*
G01X13500Y649D01*
G01X13515Y632D01*
G01X13530Y616D01*
G01X13546Y601D01*
G01X13563Y586D01*
G01X13580Y572D01*
G01X13597Y559D01*
G01X13615Y546D01*
G01X13653Y522D01*
G01X13672Y511D01*
G01X13692Y501D01*
G01X13712Y492D01*
G01X13754Y476D01*
G01X13775Y469D01*
G01X13796Y463D01*
G01X13818Y457D01*
G01X13839Y453D01*
G01X13861Y449D01*
G01X13883Y446D01*
G01X13905Y444D01*
G01X13927Y443D01*
G01X13950Y442D01*
G01X13994Y444D01*
G01X14016Y446D01*
G01X14038Y449D01*
G01X14060Y453D01*
G01X14081Y457D01*
G01X14103Y463D01*
G01X14124Y469D01*
G01X14145Y476D01*
G01X14187Y492D01*
G01X14207Y501D01*
G01X14227Y511D01*
G01X14246Y522D01*
G01X14284Y546D01*
G01X14302Y559D01*
G01X14319Y572D01*
G01X14336Y586D01*
G01X14353Y601D01*
G01X14369Y616D01*
G01X14384Y632D01*
G01X14399Y649D01*
G01X14413Y666D01*
G01X14427Y684D01*
G01X14439Y701D01*
G01X14452Y720D01*
G01X14463Y739D01*
G01X14474Y759D01*
G01X14484Y778D01*
G01X14493Y798D01*
G01X14502Y819D01*
G01X14516Y861D01*
G01X14522Y882D01*
G01X14528Y904D01*
G01X14532Y926D01*
G01X14536Y947D01*
G01X14539Y969D01*
G01X14541Y991D01*
G01X14542Y1013D01*
G01X14543Y1036D01*
G01X14541Y1080D01*
G01X14539Y1102D01*
G01X14536Y1124D01*
G01X14528Y1168D01*
G01X14522Y1189D01*
G01X14516Y1211D01*
G01X14509Y1232D01*
G01X14502Y1252D01*
G01X14493Y1273D01*
G01X14484Y1293D01*
G01X14474Y1313D01*
G01X14452Y1351D01*
G01X14439Y1370D01*
G01X14427Y1388D01*
G01X14413Y1405D01*
G01X14399Y1423D01*
G01X14369Y1455D01*
G01X14353Y1471D01*
G01X14336Y1485D01*
G01X14319Y1500D01*
G01X14302Y1513D01*
G01X14284Y1526D01*
G01X14265Y1538D01*
G01X14227Y1560D01*
G01X14207Y1570D01*
G01X14187Y1579D01*
G01X14166Y1588D01*
G01X14145Y1596D01*
G01X14124Y1603D01*
G01X14103Y1609D01*
G01X14081Y1614D01*
G01X14060Y1619D01*
G01X14016Y1625D01*
G01X13994Y1627D01*
G01X13950Y1629D01*
G01X13906Y1627D01*
G01X13884Y1625D01*
G01X13862Y1622D01*
G01X13841Y1619D01*
G01X13819Y1614D01*
G01X13798Y1609D01*
G01X13777Y1603D01*
G01X13756Y1596D01*
G01X13736Y1589D01*
G01X13715Y1581D01*
G01X13696Y1572D01*
G01X13670Y1559D01*
G01X13664Y1558D01*
G01X13657Y1557D01*
G01X13645Y1559D01*
G01X13639Y1562D01*
G01X13634Y1565D01*
G01X13629Y1569D01*
G01X12471Y2727D01*
G01X12467Y2732D01*
G01X12464Y2738D01*
G01X12461Y2743D01*
G01X12460Y2749D01*
G01X12460Y6526D01*
G01X12459Y6537D01*
G01X12458Y6549D01*
G01X12455Y6561D01*
G01X12452Y6572D01*
G01X12448Y6583D01*
G01X12443Y6594D01*
G01X12431Y6614D01*
G01X12415Y6632D01*
G01X12013Y7036D01*
G01X12004Y7044D01*
G01X11994Y7051D01*
G01X11985Y7058D01*
G01X11974Y7064D01*
G01X11963Y7069D01*
G01X11952Y7073D01*
G01X11941Y7076D01*
G01X11929Y7079D01*
G01X11917Y7080D01*
G01X11471Y7080D01*
G01X11459Y7079D01*
G01X11447Y7076D01*
G01X11436Y7073D01*
G01X11425Y7069D01*
G01X11414Y7064D01*
G01X11394Y7052D01*
G01X11376Y7036D01*
G01X11157Y6817D01*
G01X11152Y6813D01*
G01X11147Y6810D01*
G01X11141Y6807D01*
G01X11135Y6806D01*
G01X11128Y6805D01*
G01X8144Y6805D01*
G01X8132Y6807D01*
G01X8127Y6809D01*
G01X8117Y6817D01*
G01X8113Y6821D01*
G01X8110Y6826D01*
G01X8107Y6832D01*
G01X8105Y6837D01*
G01X8105Y6843D01*
G01X8101Y6883D01*
G01X8097Y6903D01*
G01X8089Y6941D01*
G01X8077Y6979D01*
G01X8070Y6998D01*
G01X8062Y7016D01*
G01X8053Y7034D01*
G01X8033Y7068D01*
G01X8022Y7084D01*
G01X8011Y7101D01*
G01X7999Y7116D01*
G01X7986Y7131D01*
G01X7972Y7146D01*
G01X7958Y7160D01*
G01X7928Y7186D01*
G01X7913Y7198D01*
G01X7896Y7209D01*
G01X7880Y7220D01*
G01X7862Y7230D01*
G01X7845Y7239D01*
G01X7827Y7248D01*
G01X7809Y7255D01*
G01X7790Y7263D01*
G01X7771Y7269D01*
G01X7752Y7274D01*
G01X7733Y7278D01*
G01X7713Y7282D01*
G01X7693Y7285D01*
G01X7674Y7287D01*
G01X7634Y7289D01*
G01X7610Y7288D01*
G01X7585Y7286D01*
G01X7560Y7283D01*
G01X7541Y7280D01*
G01X7522Y7276D01*
G01X7503Y7270D01*
G01X7485Y7265D01*
G01X7466Y7258D01*
G01X7448Y7251D01*
G01X7430Y7242D01*
G01X7413Y7234D01*
G01X7379Y7214D01*
G01X7363Y7203D01*
G01X7331Y7179D01*
G01X7303Y7153D01*
G01X7289Y7138D01*
G01X7276Y7124D01*
G01X7264Y7109D01*
G01X7252Y7093D01*
G01X7241Y7077D01*
G01X7230Y7060D01*
G01X7221Y7043D01*
G01X7211Y7026D01*
G01X7203Y7008D01*
G01X7189Y6972D01*
G01X7183Y6953D01*
G01X7173Y6915D01*
G01X7170Y6896D01*
G01X7167Y6876D01*
G01X7165Y6857D01*
G01X7164Y6838D01*
G01X7163Y6818D01*
G01X7165Y6776D01*
G01X7167Y6756D01*
G01X7171Y6735D01*
G01X7171Y6722D01*
G01X7169Y6717D01*
G01X7168Y6711D01*
G01X7165Y6706D01*
G01X7153Y6694D01*
G01X7143Y6690D01*
G01X7137Y6688D01*
G01X7125Y6688D01*
G01X7113Y6692D01*
G01X7103Y6700D01*
G01X4896Y8906D01*
G01X4888Y8914D01*
G01X4878Y8922D01*
G01X4858Y8934D01*
G01X4847Y8939D01*
G01X4836Y8943D01*
G01X4825Y8946D01*
G01X4813Y8949D01*
G01X4789Y8951D01*
G01X4451Y8951D01*
G01X4445Y8952D01*
G01X4440Y8954D01*
G01X4434Y8957D01*
G01X4426Y8965D01*
G01X4422Y8970D01*
G01X4420Y8975D01*
G01X4412Y8992D01*
G01X4403Y9010D01*
G01X4394Y9026D01*
G01X4384Y9043D01*
G01X4374Y9059D01*
G01X4363Y9074D01*
G01X4351Y9089D01*
G01X4338Y9104D01*
G01X4325Y9118D01*
G01X4312Y9131D01*
G01X4298Y9144D01*
G01X4283Y9156D01*
G01X4267Y9167D01*
G01X4252Y9178D01*
G01X4236Y9189D01*
G01X4202Y9207D01*
G01X4185Y9215D01*
G01X4167Y9223D01*
G01X4150Y9230D01*
G01X4131Y9235D01*
G01X4113Y9240D01*
G01X4094Y9245D01*
G01X4076Y9248D01*
G01X4057Y9251D01*
G01X4019Y9255D01*
G37*
G36*
G01X7825Y878D02*
G01X7617Y878D01*
G01X7623Y860D01*
G01X7639Y826D01*
G01X7648Y810D01*
G01X7658Y794D01*
G01X7680Y764D01*
G01X7692Y749D01*
G01X7705Y735D01*
G01X7731Y709D01*
G01X7746Y697D01*
G01X7760Y686D01*
G01X7776Y675D01*
G01X7808Y655D01*
G01X7825Y647D01*
G01X7825Y878D01*
G37*
G36*
G01X7825Y1321D02*
G01X7825Y1552D01*
G01X7808Y1544D01*
G01X7776Y1524D01*
G01X7760Y1513D01*
G01X7746Y1502D01*
G01X7731Y1490D01*
G01X7705Y1464D01*
G01X7692Y1450D01*
G01X7680Y1435D01*
G01X7658Y1405D01*
G01X7648Y1389D01*
G01X7639Y1373D01*
G01X7623Y1339D01*
G01X7617Y1321D01*
G01X7825Y1321D01*
G37*
G36*
G01X1908Y4091D02*
G01X1673Y4091D01*
G01X1683Y4072D01*
G01X1705Y4036D01*
G01X1717Y4019D01*
G01X1730Y4002D01*
G01X1743Y3986D01*
G01X1757Y3970D01*
G01X1787Y3940D01*
G01X1803Y3926D01*
G01X1819Y3913D01*
G01X1836Y3900D01*
G01X1853Y3888D01*
G01X1871Y3876D01*
G01X1889Y3866D01*
G01X1908Y3856D01*
G01X1908Y4091D01*
G37*
G36*
G01X2626Y4091D02*
G01X2391Y4091D01*
G01X2391Y3856D01*
G01X2410Y3866D01*
G01X2428Y3876D01*
G01X2446Y3888D01*
G01X2463Y3900D01*
G01X2480Y3913D01*
G01X2496Y3926D01*
G01X2512Y3940D01*
G01X2542Y3970D01*
G01X2556Y3986D01*
G01X2569Y4002D01*
G01X2582Y4019D01*
G01X2594Y4036D01*
G01X2616Y4072D01*
G01X2626Y4091D01*
G37*
G36*
G01X13708Y4141D02*
G01X13473Y4141D01*
G01X13483Y4122D01*
G01X13505Y4086D01*
G01X13517Y4069D01*
G01X13530Y4052D01*
G01X13543Y4036D01*
G01X13557Y4020D01*
G01X13587Y3990D01*
G01X13603Y3976D01*
G01X13619Y3963D01*
G01X13636Y3950D01*
G01X13653Y3938D01*
G01X13671Y3926D01*
G01X13689Y3916D01*
G01X13708Y3906D01*
G01X13708Y4141D01*
G37*
G36*
G01X14426Y4141D02*
G01X14191Y4141D01*
G01X14191Y3906D01*
G01X14210Y3916D01*
G01X14228Y3926D01*
G01X14246Y3938D01*
G01X14263Y3950D01*
G01X14280Y3963D01*
G01X14296Y3976D01*
G01X14312Y3990D01*
G01X14342Y4020D01*
G01X14356Y4036D01*
G01X14369Y4052D01*
G01X14382Y4069D01*
G01X14394Y4086D01*
G01X14416Y4122D01*
G01X14426Y4141D01*
G37*
G36*
G01X1908Y4574D02*
G01X1908Y4809D01*
G01X1889Y4799D01*
G01X1853Y4777D01*
G01X1836Y4765D01*
G01X1819Y4752D01*
G01X1803Y4738D01*
G01X1787Y4725D01*
G01X1757Y4695D01*
G01X1743Y4679D01*
G01X1730Y4663D01*
G01X1717Y4646D01*
G01X1705Y4628D01*
G01X1694Y4611D01*
G01X1683Y4592D01*
G01X1673Y4574D01*
G01X1908Y4574D01*
G37*
G36*
G01X2410Y4799D02*
G01X2391Y4809D01*
G01X2391Y4574D01*
G01X2626Y4574D01*
G01X2616Y4592D01*
G01X2605Y4611D01*
G01X2594Y4628D01*
G01X2582Y4646D01*
G01X2569Y4663D01*
G01X2556Y4679D01*
G01X2542Y4695D01*
G01X2512Y4725D01*
G01X2496Y4738D01*
G01X2480Y4752D01*
G01X2463Y4765D01*
G01X2446Y4777D01*
G01X2410Y4799D01*
G37*
G36*
G01X13708Y4624D02*
G01X13708Y4859D01*
G01X13689Y4849D01*
G01X13653Y4827D01*
G01X13636Y4815D01*
G01X13619Y4802D01*
G01X13603Y4788D01*
G01X13587Y4775D01*
G01X13557Y4745D01*
G01X13543Y4729D01*
G01X13530Y4713D01*
G01X13517Y4696D01*
G01X13505Y4678D01*
G01X13494Y4661D01*
G01X13483Y4642D01*
G01X13473Y4624D01*
G01X13708Y4624D01*
G37*
G36*
G01X14210Y4849D02*
G01X14191Y4859D01*
G01X14191Y4624D01*
G01X14426Y4624D01*
G01X14416Y4642D01*
G01X14405Y4661D01*
G01X14394Y4678D01*
G01X14382Y4696D01*
G01X14369Y4713D01*
G01X14356Y4729D01*
G01X14342Y4745D01*
G01X14312Y4775D01*
G01X14296Y4788D01*
G01X14280Y4802D01*
G01X14263Y4815D01*
G01X14246Y4827D01*
G01X14210Y4849D01*
G37*
G36*
G01X1908Y5272D02*
G01X1673Y5272D01*
G01X1683Y5253D01*
G01X1705Y5217D01*
G01X1717Y5200D01*
G01X1730Y5183D01*
G01X1743Y5167D01*
G01X1757Y5151D01*
G01X1787Y5121D01*
G01X1803Y5107D01*
G01X1819Y5094D01*
G01X1836Y5081D01*
G01X1853Y5069D01*
G01X1871Y5057D01*
G01X1889Y5047D01*
G01X1908Y5037D01*
G01X1908Y5272D01*
G37*
G36*
G01X2626Y5272D02*
G01X2391Y5272D01*
G01X2391Y5037D01*
G01X2410Y5047D01*
G01X2428Y5057D01*
G01X2446Y5069D01*
G01X2463Y5081D01*
G01X2480Y5094D01*
G01X2496Y5107D01*
G01X2512Y5121D01*
G01X2542Y5151D01*
G01X2556Y5167D01*
G01X2569Y5183D01*
G01X2582Y5200D01*
G01X2594Y5217D01*
G01X2616Y5253D01*
G01X2626Y5272D01*
G37*
G36*
G01X13708Y5322D02*
G01X13473Y5322D01*
G01X13483Y5303D01*
G01X13505Y5267D01*
G01X13517Y5250D01*
G01X13530Y5233D01*
G01X13543Y5217D01*
G01X13557Y5201D01*
G01X13587Y5171D01*
G01X13603Y5157D01*
G01X13619Y5144D01*
G01X13636Y5131D01*
G01X13653Y5119D01*
G01X13671Y5107D01*
G01X13689Y5097D01*
G01X13708Y5087D01*
G01X13708Y5322D01*
G37*
G36*
G01X14426Y5322D02*
G01X14191Y5322D01*
G01X14191Y5087D01*
G01X14210Y5097D01*
G01X14228Y5107D01*
G01X14246Y5119D01*
G01X14263Y5131D01*
G01X14280Y5144D01*
G01X14296Y5157D01*
G01X14312Y5171D01*
G01X14342Y5201D01*
G01X14356Y5217D01*
G01X14369Y5233D01*
G01X14382Y5250D01*
G01X14394Y5267D01*
G01X14416Y5303D01*
G01X14426Y5322D01*
G37*
G36*
G01X1908Y5755D02*
G01X1908Y5990D01*
G01X1889Y5980D01*
G01X1853Y5958D01*
G01X1836Y5946D01*
G01X1819Y5933D01*
G01X1787Y5905D01*
G01X1772Y5891D01*
G01X1757Y5876D01*
G01X1743Y5860D01*
G01X1730Y5844D01*
G01X1717Y5827D01*
G01X1705Y5809D01*
G01X1694Y5792D01*
G01X1683Y5773D01*
G01X1673Y5755D01*
G01X1908Y5755D01*
G37*
G36*
G01X2410Y5980D02*
G01X2391Y5990D01*
G01X2391Y5755D01*
G01X2626Y5755D01*
G01X2616Y5773D01*
G01X2605Y5792D01*
G01X2594Y5809D01*
G01X2582Y5827D01*
G01X2569Y5844D01*
G01X2556Y5860D01*
G01X2542Y5876D01*
G01X2527Y5891D01*
G01X2512Y5905D01*
G01X2480Y5933D01*
G01X2463Y5946D01*
G01X2446Y5958D01*
G01X2410Y5980D01*
G37*
G36*
G01X14210Y6030D02*
G01X14191Y6040D01*
G01X14191Y5805D01*
G01X14426Y5805D01*
G01X14416Y5823D01*
G01X14405Y5842D01*
G01X14394Y5859D01*
G01X14382Y5877D01*
G01X14369Y5894D01*
G01X14356Y5910D01*
G01X14342Y5926D01*
G01X14327Y5941D01*
G01X14312Y5955D01*
G01X14280Y5983D01*
G01X14263Y5996D01*
G01X14246Y6008D01*
G01X14210Y6030D01*
G37*
G36*
G01X13708Y5805D02*
G01X13708Y6040D01*
G01X13689Y6030D01*
G01X13653Y6008D01*
G01X13636Y5996D01*
G01X13619Y5983D01*
G01X13587Y5955D01*
G01X13572Y5941D01*
G01X13557Y5926D01*
G01X13543Y5910D01*
G01X13530Y5894D01*
G01X13517Y5877D01*
G01X13505Y5859D01*
G01X13494Y5842D01*
G01X13483Y5823D01*
G01X13473Y5805D01*
G01X13708Y5805D01*
G37*
G36*
G01X14978Y9908D02*
G01X14821Y9908D01*
G01X14802Y9907D01*
G01X14784Y9906D01*
G01X14765Y9904D01*
G01X14747Y9901D01*
G01X14728Y9898D01*
G01X14692Y9888D01*
G01X14675Y9882D01*
G01X14657Y9875D01*
G01X14640Y9867D01*
G01X14624Y9858D01*
G01X14607Y9849D01*
G01X14592Y9839D01*
G01X14576Y9828D01*
G01X14561Y9817D01*
G01X14533Y9793D01*
G01X14520Y9780D01*
G01X14507Y9766D01*
G01X14496Y9751D01*
G01X14484Y9736D01*
G01X14474Y9721D01*
G01X14464Y9705D01*
G01X14446Y9673D01*
G01X14438Y9655D01*
G01X14431Y9638D01*
G01X14425Y9621D01*
G01X14420Y9603D01*
G01X14415Y9584D01*
G01X14411Y9566D01*
G01X14409Y9548D01*
G01X14406Y9529D01*
G01X14405Y9511D01*
G01X14405Y9474D01*
G01X14406Y9455D01*
G01X14409Y9437D01*
G01X14411Y9419D01*
G01X14419Y9383D01*
G01X14425Y9366D01*
G01X14430Y9348D01*
G01X14437Y9331D01*
G01X14444Y9315D01*
G01X14453Y9298D01*
G01X14457Y9286D01*
G01X14457Y9273D01*
G01X14456Y9267D01*
G01X14453Y9261D01*
G01X14450Y9256D01*
G01X14446Y9251D01*
G01X13258Y8063D01*
G01X13250Y8053D01*
G01X13238Y8033D01*
G01X13233Y8022D01*
G01X13229Y8011D01*
G01X13226Y8000D01*
G01X13223Y7988D01*
G01X13222Y7976D01*
G01X13222Y7076D01*
G01X13221Y7071D01*
G01X13220Y7065D01*
G01X13218Y7059D01*
G01X13215Y7054D01*
G01X13211Y7049D01*
G01X13207Y7045D01*
G01X13197Y7039D01*
G01X13177Y7031D01*
G01X13157Y7021D01*
G01X13138Y7011D01*
G01X13120Y7000D01*
G01X13102Y6988D01*
G01X13084Y6975D01*
G01X13068Y6961D01*
G01X13051Y6947D01*
G01X13037Y6933D01*
G01X13023Y6918D01*
G01X13010Y6903D01*
G01X12997Y6887D01*
G01X12985Y6870D01*
G01X12963Y6836D01*
G01X12945Y6800D01*
G01X12929Y6762D01*
G01X12923Y6743D01*
G01X12917Y6723D01*
G01X12913Y6703D01*
G01X12909Y6684D01*
G01X12906Y6663D01*
G01X12903Y6643D01*
G01X12902Y6623D01*
G01X12902Y6583D01*
G01X12903Y6563D01*
G01X12905Y6544D01*
G01X12911Y6506D01*
G01X12921Y6468D01*
G01X12927Y6450D01*
G01X12934Y6431D01*
G01X12941Y6413D01*
G01X12949Y6396D01*
G01X12958Y6378D01*
G01X12968Y6361D01*
G01X12978Y6345D01*
G01X12989Y6329D01*
G01X13001Y6313D01*
G01X13013Y6298D01*
G01X13026Y6284D01*
G01X13039Y6269D01*
G01X13053Y6256D01*
G01X13068Y6243D01*
G01X13083Y6231D01*
G01X13099Y6219D01*
G01X13115Y6208D01*
G01X13131Y6198D01*
G01X13148Y6188D01*
G01X13166Y6179D01*
G01X13183Y6171D01*
G01X13219Y6157D01*
G01X13238Y6151D01*
G01X13257Y6146D01*
G01X13295Y6138D01*
G01X13314Y6135D01*
G01X13334Y6133D01*
G01X13353Y6132D01*
G01X13392Y6132D01*
G01X13411Y6133D01*
G01X13431Y6135D01*
G01X13450Y6138D01*
G01X13488Y6146D01*
G01X13507Y6151D01*
G01X13526Y6157D01*
G01X13562Y6171D01*
G01X13579Y6179D01*
G01X13597Y6188D01*
G01X13614Y6198D01*
G01X13630Y6208D01*
G01X13646Y6219D01*
G01X13662Y6231D01*
G01X13677Y6243D01*
G01X13692Y6256D01*
G01X13706Y6269D01*
G01X13719Y6284D01*
G01X13732Y6298D01*
G01X13744Y6313D01*
G01X13756Y6329D01*
G01X13767Y6345D01*
G01X13777Y6361D01*
G01X13787Y6378D01*
G01X13796Y6396D01*
G01X13804Y6413D01*
G01X13811Y6431D01*
G01X13818Y6450D01*
G01X13824Y6468D01*
G01X13834Y6506D01*
G01X13840Y6544D01*
G01X13842Y6563D01*
G01X13843Y6583D01*
G01X13843Y6623D01*
G01X13842Y6642D01*
G01X13840Y6662D01*
G01X13837Y6682D01*
G01X13833Y6702D01*
G01X13823Y6740D01*
G01X13817Y6759D01*
G01X13810Y6778D01*
G01X13802Y6796D01*
G01X13784Y6832D01*
G01X13774Y6849D01*
G01X13763Y6866D01*
G01X13739Y6898D01*
G01X13713Y6928D01*
G01X13699Y6942D01*
G01X13684Y6956D01*
G01X13669Y6969D01*
G01X13653Y6981D01*
G01X13636Y6992D01*
G01X13620Y7003D01*
G01X13602Y7013D01*
G01X13585Y7023D01*
G01X13567Y7032D01*
G01X13548Y7039D01*
G01X13538Y7045D01*
G01X13534Y7049D01*
G01X13530Y7054D01*
G01X13527Y7059D01*
G01X13525Y7065D01*
G01X13524Y7071D01*
G01X13523Y7076D01*
G01X13523Y7885D01*
G01X13524Y7892D01*
G01X13526Y7898D01*
G01X13528Y7903D01*
G01X13531Y7909D01*
G01X13535Y7914D01*
G01X14421Y8799D01*
G01X14425Y8803D01*
G01X14431Y8806D01*
G01X14436Y8809D01*
G01X14443Y8810D01*
G01X14449Y8811D01*
G01X14455Y8810D01*
G01X14460Y8809D01*
G01X14465Y8807D01*
G01X14475Y8801D01*
G01X14479Y8797D01*
G01X14485Y8787D01*
G01X14487Y8782D01*
G01X14488Y8776D01*
G01X14489Y8771D01*
G01X14487Y8759D01*
G01X14485Y8753D01*
G01X14481Y8748D01*
G01X14469Y8729D01*
G01X14457Y8709D01*
G01X14447Y8690D01*
G01X14678Y8690D01*
G01X14678Y8898D01*
G01X14660Y8891D01*
G01X14644Y8884D01*
G01X14627Y8875D01*
G01X14611Y8866D01*
G01X14596Y8857D01*
G01X14580Y8846D01*
G01X14575Y8843D01*
G01X14569Y8841D01*
G01X14557Y8839D01*
G01X14552Y8840D01*
G01X14546Y8841D01*
G01X14540Y8843D01*
G01X14535Y8845D01*
G01X14523Y8857D01*
G01X14521Y8863D01*
G01X14519Y8868D01*
G01X14518Y8873D01*
G01X14517Y8879D01*
G01X14519Y8891D01*
G01X14525Y8903D01*
G01X14529Y8907D01*
G01X14696Y9075D01*
G01X14701Y9079D01*
G01X14706Y9082D01*
G01X14718Y9086D01*
G01X14733Y9086D01*
G01X14755Y9081D01*
G01X14777Y9078D01*
G01X14821Y9076D01*
G01X14997Y9076D01*
G01X15015Y9078D01*
G01X15034Y9080D01*
G01X15052Y9083D01*
G01X15071Y9086D01*
G01X15107Y9096D01*
G01X15124Y9103D01*
G01X15142Y9109D01*
G01X15159Y9117D01*
G01X15175Y9126D01*
G01X15192Y9135D01*
G01X15207Y9145D01*
G01X15223Y9155D01*
G01X15238Y9167D01*
G01X15266Y9191D01*
G01X15279Y9205D01*
G01X15292Y9218D01*
G01X15303Y9233D01*
G01X15315Y9248D01*
G01X15325Y9263D01*
G01X15335Y9279D01*
G01X15353Y9311D01*
G01X15361Y9328D01*
G01X15368Y9346D01*
G01X15374Y9363D01*
G01X15379Y9381D01*
G01X15384Y9400D01*
G01X15388Y9418D01*
G01X15390Y9436D01*
G01X15393Y9455D01*
G01X15394Y9473D01*
G01X15394Y9511D01*
G01X15393Y9529D01*
G01X15390Y9548D01*
G01X15388Y9566D01*
G01X15384Y9584D01*
G01X15379Y9603D01*
G01X15374Y9621D01*
G01X15368Y9638D01*
G01X15361Y9655D01*
G01X15353Y9673D01*
G01X15335Y9705D01*
G01X15325Y9721D01*
G01X15315Y9736D01*
G01X15303Y9751D01*
G01X15292Y9766D01*
G01X15279Y9780D01*
G01X15266Y9793D01*
G01X15238Y9817D01*
G01X15223Y9828D01*
G01X15207Y9839D01*
G01X15192Y9849D01*
G01X15175Y9858D01*
G01X15159Y9867D01*
G01X15142Y9875D01*
G01X15124Y9882D01*
G01X15107Y9888D01*
G01X15071Y9898D01*
G01X15052Y9901D01*
G01X15034Y9904D01*
G01X15015Y9906D01*
G01X14997Y9907D01*
G01X14978Y9908D01*
G37*
G36*
G01X3868Y7173D02*
G01X3829Y7173D01*
G01X3810Y7171D01*
G01X3790Y7169D01*
G01X3771Y7167D01*
G01X3733Y7159D01*
G01X3714Y7153D01*
G01X3696Y7147D01*
G01X3677Y7141D01*
G01X3659Y7133D01*
G01X3642Y7125D01*
G01X3625Y7116D01*
G01X3607Y7107D01*
G01X3575Y7085D01*
G01X3559Y7073D01*
G01X3544Y7061D01*
G01X3530Y7048D01*
G01X3515Y7035D01*
G01X3502Y7021D01*
G01X3489Y7006D01*
G01X3465Y6976D01*
G01X3454Y6959D01*
G01X3444Y6943D01*
G01X3434Y6926D01*
G01X3426Y6909D01*
G01X3417Y6891D01*
G01X3403Y6855D01*
G01X3397Y6836D01*
G01X3392Y6817D01*
G01X3384Y6779D01*
G01X3381Y6760D01*
G01X3379Y6741D01*
G01X3378Y6721D01*
G01X3378Y6686D01*
G01X3379Y6666D01*
G01X3381Y6646D01*
G01X3387Y6608D01*
G01X3391Y6589D01*
G01X3396Y6570D01*
G01X3402Y6551D01*
G01X3416Y6515D01*
G01X3425Y6497D01*
G01X3433Y6480D01*
G01X3453Y6446D01*
G01X3464Y6430D01*
G01X3476Y6414D01*
G01X3488Y6399D01*
G01X3501Y6384D01*
G01X3515Y6370D01*
G01X3528Y6356D01*
G01X3543Y6343D01*
G01X3558Y6331D01*
G01X3574Y6319D01*
G01X3590Y6308D01*
G01X3607Y6298D01*
G01X3623Y6288D01*
G01X3641Y6279D01*
G01X3677Y6263D01*
G01X3695Y6257D01*
G01X3714Y6251D01*
G01X3732Y6245D01*
G01X3751Y6241D01*
G01X3771Y6237D01*
G01X3790Y6234D01*
G01X3809Y6232D01*
G01X3829Y6231D01*
G01X3868Y6231D01*
G01X3888Y6232D01*
G01X3907Y6234D01*
G01X3926Y6237D01*
G01X3964Y6245D01*
G01X3983Y6251D01*
G01X4001Y6256D01*
G01X4020Y6263D01*
G01X4038Y6271D01*
G01X4055Y6279D01*
G01X4073Y6288D01*
G01X4090Y6297D01*
G01X4106Y6307D01*
G01X4122Y6319D01*
G01X4138Y6330D01*
G01X4153Y6342D01*
G01X4167Y6355D01*
G01X4182Y6369D01*
G01X4195Y6383D01*
G01X4208Y6398D01*
G01X4232Y6428D01*
G01X4243Y6444D01*
G01X4263Y6478D01*
G01X4272Y6495D01*
G01X4280Y6513D01*
G01X4294Y6549D01*
G01X4300Y6567D01*
G01X4305Y6586D01*
G01X4313Y6624D01*
G01X4316Y6644D01*
G01X4318Y6663D01*
G01X4319Y6682D01*
G01X4319Y6721D01*
G01X4318Y6741D01*
G01X4316Y6760D01*
G01X4313Y6779D01*
G01X4305Y6817D01*
G01X4300Y6836D01*
G01X4294Y6855D01*
G01X4280Y6891D01*
G01X4272Y6909D01*
G01X4263Y6926D01*
G01X4253Y6943D01*
G01X4243Y6959D01*
G01X4232Y6976D01*
G01X4208Y7006D01*
G01X4195Y7021D01*
G01X4182Y7035D01*
G01X4167Y7048D01*
G01X4153Y7061D01*
G01X4138Y7073D01*
G01X4122Y7085D01*
G01X4090Y7107D01*
G01X4073Y7116D01*
G01X4055Y7125D01*
G01X4038Y7133D01*
G01X4020Y7141D01*
G01X4001Y7147D01*
G01X3983Y7153D01*
G01X3964Y7159D01*
G01X3926Y7167D01*
G01X3888Y7171D01*
G01X3868Y7173D01*
G37*
G36*
G01X9016Y8690D02*
G01X9007Y8691D01*
G01X8997Y8690D01*
G01X8988Y8689D01*
G01X8979Y8687D01*
G01X8971Y8684D01*
G01X8962Y8680D01*
G01X8954Y8676D01*
G01X8946Y8671D01*
G01X8939Y8665D01*
G01X8932Y8658D01*
G01X8927Y8651D01*
G01X8921Y8643D01*
G01X8546Y8042D01*
G01X8541Y8034D01*
G01X8537Y8026D01*
G01X8534Y8017D01*
G01X8532Y8007D01*
G01X8530Y7989D01*
G01X8531Y7980D01*
G01X8532Y7970D01*
G01X8534Y7961D01*
G01X8537Y7952D01*
G01X8545Y7936D01*
G01X8551Y7928D01*
G01X8556Y7921D01*
G01X8563Y7914D01*
G01X8570Y7908D01*
G01X8578Y7903D01*
G01X9179Y7528D01*
G01X9187Y7523D01*
G01X9196Y7519D01*
G01X9205Y7516D01*
G01X9214Y7514D01*
G01X9232Y7512D01*
G01X9242Y7513D01*
G01X9251Y7514D01*
G01X9260Y7516D01*
G01X9269Y7519D01*
G01X9285Y7527D01*
G01X9293Y7532D01*
G01X9300Y7538D01*
G01X9307Y7545D01*
G01X9313Y7552D01*
G01X9318Y7560D01*
G01X9693Y8161D01*
G01X9698Y8169D01*
G01X9702Y8178D01*
G01X9705Y8186D01*
G01X9707Y8196D01*
G01X9709Y8205D01*
G01X9709Y8223D01*
G01X9707Y8233D01*
G01X9705Y8242D01*
G01X9702Y8251D01*
G01X9694Y8267D01*
G01X9689Y8275D01*
G01X9683Y8282D01*
G01X9669Y8294D01*
G01X9661Y8300D01*
G01X9060Y8675D01*
G01X9052Y8680D01*
G01X9044Y8684D01*
G01X9035Y8687D01*
G01X9026Y8689D01*
G01X9016Y8690D01*
G37*
G36*
G01X14678Y8325D02*
G01X14447Y8325D01*
G01X14456Y8308D01*
G01X14465Y8292D01*
G01X14475Y8276D01*
G01X14497Y8246D01*
G01X14509Y8231D01*
G01X14535Y8205D01*
G01X14549Y8192D01*
G01X14564Y8180D01*
G01X14594Y8158D01*
G01X14610Y8148D01*
G01X14626Y8139D01*
G01X14660Y8123D01*
G01X14678Y8117D01*
G01X14678Y8325D01*
G37*
G36*
G01X15352Y8325D02*
G01X15121Y8325D01*
G01X15121Y8117D01*
G01X15139Y8123D01*
G01X15173Y8139D01*
G01X15189Y8148D01*
G01X15205Y8158D01*
G01X15235Y8180D01*
G01X15250Y8192D01*
G01X15264Y8205D01*
G01X15290Y8231D01*
G01X15302Y8246D01*
G01X15324Y8276D01*
G01X15334Y8292D01*
G01X15343Y8308D01*
G01X15352Y8325D01*
G37*
G36*
G01X1952Y8325D02*
G01X1721Y8325D01*
G01X1721Y8117D01*
G01X1739Y8123D01*
G01X1773Y8139D01*
G01X1789Y8148D01*
G01X1805Y8158D01*
G01X1835Y8180D01*
G01X1850Y8192D01*
G01X1864Y8205D01*
G01X1890Y8231D01*
G01X1902Y8246D01*
G01X1924Y8276D01*
G01X1944Y8308D01*
G01X1952Y8325D01*
G37*
G36*
G01X1278Y8325D02*
G01X1047Y8325D01*
G01X1055Y8308D01*
G01X1075Y8276D01*
G01X1097Y8246D01*
G01X1109Y8231D01*
G01X1135Y8205D01*
G01X1149Y8192D01*
G01X1164Y8180D01*
G01X1194Y8158D01*
G01X1210Y8148D01*
G01X1226Y8139D01*
G01X1260Y8123D01*
G01X1278Y8117D01*
G01X1278Y8325D01*
G37*
G36*
G01X11346Y9267D02*
G01X11307Y9267D01*
G01X11287Y9266D01*
G01X11268Y9264D01*
G01X11248Y9261D01*
G01X11210Y9253D01*
G01X11191Y9248D01*
G01X11172Y9242D01*
G01X11154Y9235D01*
G01X11118Y9219D01*
G01X11101Y9210D01*
G01X11067Y9190D01*
G01X11051Y9178D01*
G01X11035Y9167D01*
G01X11005Y9141D01*
G01X10991Y9127D01*
G01X10977Y9112D01*
G01X10964Y9097D01*
G01X10951Y9081D01*
G01X10939Y9064D01*
G01X10917Y9030D01*
G01X10899Y8994D01*
G01X10883Y8956D01*
G01X10877Y8937D01*
G01X10871Y8917D01*
G01X10867Y8898D01*
G01X10863Y8878D01*
G01X10860Y8857D01*
G01X10857Y8837D01*
G01X10856Y8817D01*
G01X10856Y8777D01*
G01X10857Y8758D01*
G01X10859Y8738D01*
G01X10865Y8700D01*
G01X10875Y8662D01*
G01X10881Y8644D01*
G01X10888Y8625D01*
G01X10895Y8607D01*
G01X10903Y8590D01*
G01X10912Y8572D01*
G01X10922Y8555D01*
G01X10932Y8539D01*
G01X10943Y8523D01*
G01X10955Y8507D01*
G01X10967Y8492D01*
G01X10980Y8478D01*
G01X10993Y8463D01*
G01X11007Y8450D01*
G01X11022Y8437D01*
G01X11037Y8425D01*
G01X11053Y8413D01*
G01X11069Y8402D01*
G01X11085Y8392D01*
G01X11102Y8382D01*
G01X11120Y8373D01*
G01X11137Y8365D01*
G01X11173Y8351D01*
G01X11192Y8345D01*
G01X11211Y8340D01*
G01X11249Y8332D01*
G01X11268Y8329D01*
G01X11288Y8327D01*
G01X11307Y8326D01*
G01X11346Y8326D01*
G01X11365Y8327D01*
G01X11385Y8329D01*
G01X11404Y8332D01*
G01X11442Y8340D01*
G01X11461Y8345D01*
G01X11480Y8351D01*
G01X11516Y8365D01*
G01X11533Y8373D01*
G01X11551Y8382D01*
G01X11568Y8392D01*
G01X11584Y8402D01*
G01X11600Y8413D01*
G01X11616Y8425D01*
G01X11631Y8437D01*
G01X11646Y8450D01*
G01X11660Y8463D01*
G01X11673Y8478D01*
G01X11686Y8492D01*
G01X11698Y8507D01*
G01X11710Y8523D01*
G01X11721Y8539D01*
G01X11731Y8555D01*
G01X11741Y8572D01*
G01X11750Y8590D01*
G01X11758Y8607D01*
G01X11765Y8625D01*
G01X11772Y8644D01*
G01X11778Y8662D01*
G01X11788Y8700D01*
G01X11794Y8738D01*
G01X11796Y8758D01*
G01X11797Y8777D01*
G01X11797Y8816D01*
G01X11796Y8836D01*
G01X11794Y8855D01*
G01X11788Y8893D01*
G01X11778Y8931D01*
G01X11772Y8950D01*
G01X11758Y8986D01*
G01X11750Y9003D01*
G01X11741Y9021D01*
G01X11731Y9038D01*
G01X11721Y9054D01*
G01X11710Y9070D01*
G01X11698Y9086D01*
G01X11686Y9101D01*
G01X11673Y9115D01*
G01X11660Y9130D01*
G01X11646Y9143D01*
G01X11631Y9156D01*
G01X11616Y9168D01*
G01X11600Y9180D01*
G01X11584Y9191D01*
G01X11568Y9201D01*
G01X11551Y9211D01*
G01X11533Y9220D01*
G01X11516Y9228D01*
G01X11480Y9242D01*
G01X11461Y9248D01*
G01X11442Y9253D01*
G01X11404Y9261D01*
G01X11385Y9264D01*
G01X11365Y9266D01*
G01X11346Y9267D01*
G37*
G36*
G01X9669Y9405D02*
G01X9630Y9405D01*
G01X9592Y9401D01*
G01X9572Y9398D01*
G01X9553Y9395D01*
G01X9535Y9390D01*
G01X9516Y9385D01*
G01X9498Y9379D01*
G01X9462Y9365D01*
G01X9444Y9356D01*
G01X9427Y9347D01*
G01X9411Y9337D01*
G01X9394Y9327D01*
G01X9379Y9315D01*
G01X9364Y9304D01*
G01X9349Y9291D01*
G01X9321Y9265D01*
G01X9308Y9250D01*
G01X9295Y9236D01*
G01X9284Y9220D01*
G01X9272Y9205D01*
G01X9252Y9171D01*
G01X9243Y9155D01*
G01X9227Y9119D01*
G01X9220Y9101D01*
G01X9214Y9083D01*
G01X9209Y9064D01*
G01X9204Y9046D01*
G01X9201Y9026D01*
G01X9198Y9007D01*
G01X9194Y8969D01*
G01X9194Y8930D01*
G01X9198Y8892D01*
G01X9201Y8873D01*
G01X9204Y8853D01*
G01X9209Y8835D01*
G01X9214Y8816D01*
G01X9220Y8798D01*
G01X9227Y8780D01*
G01X9243Y8744D01*
G01X9252Y8728D01*
G01X9272Y8694D01*
G01X9284Y8679D01*
G01X9295Y8663D01*
G01X9308Y8649D01*
G01X9321Y8634D01*
G01X9349Y8608D01*
G01X9364Y8595D01*
G01X9379Y8584D01*
G01X9394Y8572D01*
G01X9411Y8562D01*
G01X9427Y8552D01*
G01X9444Y8543D01*
G01X9462Y8534D01*
G01X9498Y8520D01*
G01X9516Y8514D01*
G01X9535Y8509D01*
G01X9553Y8504D01*
G01X9572Y8501D01*
G01X9592Y8498D01*
G01X9630Y8494D01*
G01X9669Y8494D01*
G01X9707Y8498D01*
G01X9745Y8504D01*
G01X9764Y8509D01*
G01X9782Y8514D01*
G01X9818Y8526D01*
G01X9836Y8534D01*
G01X9853Y8542D01*
G01X9870Y8551D01*
G01X9887Y8561D01*
G01X9903Y8571D01*
G01X9919Y8582D01*
G01X9949Y8606D01*
G01X9963Y8619D01*
G01X9977Y8633D01*
G01X9990Y8647D01*
G01X10002Y8661D01*
G01X10014Y8676D01*
G01X10036Y8708D01*
G01X10046Y8725D01*
G01X10055Y8742D01*
G01X10064Y8760D01*
G01X10078Y8796D01*
G01X10090Y8834D01*
G01X10098Y8872D01*
G01X10101Y8891D01*
G01X10103Y8911D01*
G01X10105Y8930D01*
G01X10105Y8969D01*
G01X10101Y9007D01*
G01X10098Y9026D01*
G01X10095Y9046D01*
G01X10090Y9064D01*
G01X10085Y9083D01*
G01X10079Y9101D01*
G01X10072Y9119D01*
G01X10056Y9155D01*
G01X10047Y9171D01*
G01X10027Y9205D01*
G01X10015Y9220D01*
G01X10004Y9236D01*
G01X9991Y9250D01*
G01X9978Y9265D01*
G01X9950Y9291D01*
G01X9935Y9304D01*
G01X9920Y9315D01*
G01X9905Y9327D01*
G01X9888Y9337D01*
G01X9872Y9347D01*
G01X9855Y9356D01*
G01X9837Y9365D01*
G01X9801Y9379D01*
G01X9783Y9385D01*
G01X9764Y9390D01*
G01X9746Y9395D01*
G01X9727Y9398D01*
G01X9707Y9401D01*
G01X9669Y9405D01*
G37*
G36*
G01X15139Y8891D02*
G01X15121Y8898D01*
G01X15121Y8690D01*
G01X15352Y8690D01*
G01X15334Y8722D01*
G01X15324Y8738D01*
G01X15302Y8768D01*
G01X15290Y8783D01*
G01X15264Y8809D01*
G01X15250Y8822D01*
G01X15235Y8834D01*
G01X15205Y8856D01*
G01X15189Y8866D01*
G01X15173Y8875D01*
G01X15139Y8891D01*
G37*
G36*
G01X1278Y8690D02*
G01X1278Y8898D01*
G01X1260Y8891D01*
G01X1226Y8875D01*
G01X1210Y8866D01*
G01X1194Y8856D01*
G01X1164Y8834D01*
G01X1149Y8822D01*
G01X1135Y8809D01*
G01X1109Y8783D01*
G01X1097Y8768D01*
G01X1075Y8738D01*
G01X1055Y8706D01*
G01X1047Y8690D01*
G01X1278Y8690D01*
G37*
G36*
G01X1739Y8891D02*
G01X1721Y8898D01*
G01X1721Y8690D01*
G01X1952Y8690D01*
G01X1944Y8706D01*
G01X1924Y8738D01*
G01X1902Y8768D01*
G01X1890Y8783D01*
G01X1864Y8809D01*
G01X1850Y8822D01*
G01X1835Y8834D01*
G01X1805Y8856D01*
G01X1789Y8866D01*
G01X1773Y8875D01*
G01X1739Y8891D01*
G37*
G36*
G01X3996Y10300D02*
G01X3974Y10300D01*
G01X3964Y10298D01*
G01X3955Y10296D01*
G01X3946Y10293D01*
G01X3937Y10289D01*
G01X3921Y10279D01*
G01X3914Y10273D01*
G01X3907Y10266D01*
G01X3901Y10258D01*
G01X3896Y10250D01*
G01X3892Y10242D01*
G01X3888Y10233D01*
G01X3885Y10224D01*
G01X3714Y9536D01*
G01X3712Y9524D01*
G01X3711Y9512D01*
G01X3711Y9502D01*
G01X3713Y9493D01*
G01X3715Y9483D01*
G01X3718Y9474D01*
G01X3722Y9466D01*
G01X3727Y9457D01*
G01X3732Y9450D01*
G01X3738Y9442D01*
G01X3746Y9436D01*
G01X3753Y9430D01*
G01X3769Y9420D01*
G01X3778Y9417D01*
G01X3788Y9414D01*
G01X4475Y9242D01*
G01X4487Y9240D01*
G01X4500Y9239D01*
G01X4509Y9240D01*
G01X4519Y9241D01*
G01X4528Y9243D01*
G01X4537Y9246D01*
G01X4546Y9250D01*
G01X4554Y9255D01*
G01X4562Y9261D01*
G01X4569Y9267D01*
G01X4576Y9274D01*
G01X4582Y9281D01*
G01X4587Y9289D01*
G01X4595Y9307D01*
G01X4598Y9316D01*
G01X4769Y10003D01*
G01X4771Y10015D01*
G01X4772Y10028D01*
G01X4772Y10038D01*
G01X4768Y10056D01*
G01X4765Y10065D01*
G01X4761Y10074D01*
G01X4751Y10090D01*
G01X4737Y10104D01*
G01X4730Y10110D01*
G01X4722Y10115D01*
G01X4713Y10119D01*
G01X4705Y10123D01*
G01X4695Y10126D01*
G01X4008Y10297D01*
G01X3996Y10300D01*
G37*
G36*
G01X7184Y10252D02*
G01X7165Y10252D01*
G01X7140Y10251D01*
G01X7116Y10250D01*
G01X7091Y10246D01*
G01X7072Y10243D01*
G01X7053Y10238D01*
G01X7034Y10234D01*
G01X7015Y10228D01*
G01X6997Y10221D01*
G01X6978Y10214D01*
G01X6961Y10205D01*
G01X6943Y10197D01*
G01X6926Y10187D01*
G01X6910Y10177D01*
G01X6893Y10166D01*
G01X6877Y10154D01*
G01X6862Y10142D01*
G01X6847Y10129D01*
G01X6833Y10116D01*
G01X6820Y10101D01*
G01X6807Y10087D01*
G01X6794Y10072D01*
G01X6782Y10056D01*
G01X6772Y10040D01*
G01X6761Y10023D01*
G01X6751Y10007D01*
G01X6742Y9989D01*
G01X6734Y9971D01*
G01X6720Y9935D01*
G01X6714Y9916D01*
G01X6704Y9878D01*
G01X6700Y9859D01*
G01X6697Y9840D01*
G01X6696Y9820D01*
G01X6694Y9801D01*
G01X6694Y9761D01*
G01X6696Y9742D01*
G01X6697Y9723D01*
G01X6700Y9703D01*
G01X6708Y9665D01*
G01X6714Y9647D01*
G01X6719Y9628D01*
G01X6726Y9610D01*
G01X6742Y9574D01*
G01X6760Y9540D01*
G01X6771Y9523D01*
G01X6781Y9507D01*
G01X6793Y9492D01*
G01X6806Y9477D01*
G01X6818Y9462D01*
G01X6846Y9434D01*
G01X6860Y9422D01*
G01X6876Y9409D01*
G01X6891Y9398D01*
G01X6907Y9387D01*
G01X6924Y9376D01*
G01X6958Y9358D01*
G01X6994Y9342D01*
G01X7012Y9336D01*
G01X7031Y9330D01*
G01X7049Y9325D01*
G01X7068Y9320D01*
G01X7106Y9314D01*
G01X7126Y9312D01*
G01X7145Y9311D01*
G01X7165Y9310D01*
G01X7184Y9311D01*
G01X7204Y9312D01*
G01X7223Y9314D01*
G01X7261Y9320D01*
G01X7281Y9325D01*
G01X7299Y9330D01*
G01X7318Y9336D01*
G01X7336Y9342D01*
G01X7372Y9358D01*
G01X7406Y9376D01*
G01X7422Y9387D01*
G01X7439Y9398D01*
G01X7454Y9409D01*
G01X7469Y9422D01*
G01X7484Y9434D01*
G01X7498Y9448D01*
G01X7511Y9462D01*
G01X7524Y9477D01*
G01X7548Y9507D01*
G01X7559Y9523D01*
G01X7579Y9557D01*
G01X7588Y9574D01*
G01X7604Y9610D01*
G01X7610Y9628D01*
G01X7616Y9647D01*
G01X7622Y9665D01*
G01X7630Y9703D01*
G01X7632Y9723D01*
G01X7634Y9742D01*
G01X7635Y9761D01*
G01X7636Y9781D01*
G01X7635Y9801D01*
G01X7634Y9820D01*
G01X7632Y9839D01*
G01X7630Y9859D01*
G01X7622Y9897D01*
G01X7616Y9915D01*
G01X7610Y9934D01*
G01X7604Y9952D01*
G01X7588Y9988D01*
G01X7579Y10005D01*
G01X7559Y10039D01*
G01X7548Y10055D01*
G01X7536Y10070D01*
G01X7524Y10086D01*
G01X7498Y10114D01*
G01X7484Y10128D01*
G01X7469Y10140D01*
G01X7454Y10153D01*
G01X7439Y10164D01*
G01X7422Y10175D01*
G01X7406Y10186D01*
G01X7372Y10204D01*
G01X7336Y10220D01*
G01X7318Y10226D01*
G01X7299Y10232D01*
G01X7281Y10238D01*
G01X7261Y10242D01*
G01X7242Y10246D01*
G01X7223Y10248D01*
G01X7204Y10251D01*
G01X7184Y10252D01*
G37*
G36*
G01X10199Y10253D02*
G01X10160Y10253D01*
G01X10122Y10249D01*
G01X10102Y10246D01*
G01X10084Y10243D01*
G01X10046Y10233D01*
G01X10028Y10227D01*
G01X9992Y10213D01*
G01X9975Y10204D01*
G01X9957Y10195D01*
G01X9925Y10175D01*
G01X9909Y10164D01*
G01X9893Y10152D01*
G01X9878Y10139D01*
G01X9864Y10126D01*
G01X9851Y10113D01*
G01X9838Y10098D01*
G01X9825Y10084D01*
G01X9813Y10068D01*
G01X9802Y10053D01*
G01X9792Y10036D01*
G01X9782Y10020D01*
G01X9773Y10003D01*
G01X9764Y9985D01*
G01X9750Y9949D01*
G01X9744Y9931D01*
G01X9739Y9912D01*
G01X9734Y9894D01*
G01X9731Y9875D01*
G01X9728Y9855D01*
G01X9726Y9836D01*
G01X9724Y9798D01*
G01X9725Y9778D01*
G01X9726Y9759D01*
G01X9728Y9740D01*
G01X9734Y9702D01*
G01X9744Y9664D01*
G01X9750Y9646D01*
G01X9764Y9610D01*
G01X9773Y9592D01*
G01X9782Y9576D01*
G01X9802Y9542D01*
G01X9813Y9527D01*
G01X9825Y9511D01*
G01X9838Y9497D01*
G01X9851Y9482D01*
G01X9864Y9469D01*
G01X9878Y9456D01*
G01X9893Y9443D01*
G01X9909Y9432D01*
G01X9925Y9420D01*
G01X9957Y9400D01*
G01X9975Y9391D01*
G01X9992Y9383D01*
G01X10010Y9375D01*
G01X10028Y9368D01*
G01X10046Y9362D01*
G01X10065Y9357D01*
G01X10084Y9353D01*
G01X10102Y9349D01*
G01X10122Y9346D01*
G01X10141Y9344D01*
G01X10160Y9343D01*
G01X10180Y9342D01*
G01X10218Y9344D01*
G01X10237Y9346D01*
G01X10275Y9352D01*
G01X10293Y9357D01*
G01X10312Y9362D01*
G01X10330Y9368D01*
G01X10366Y9382D01*
G01X10383Y9390D01*
G01X10400Y9399D01*
G01X10417Y9409D01*
G01X10433Y9419D01*
G01X10449Y9430D01*
G01X10479Y9454D01*
G01X10493Y9467D01*
G01X10532Y9509D01*
G01X10544Y9525D01*
G01X10555Y9540D01*
G01X10565Y9556D01*
G01X10576Y9573D01*
G01X10585Y9590D01*
G01X10601Y9626D01*
G01X10608Y9644D01*
G01X10620Y9682D01*
G01X10628Y9720D01*
G01X10631Y9739D01*
G01X10633Y9759D01*
G01X10634Y9778D01*
G01X10635Y9798D01*
G01X10633Y9836D01*
G01X10631Y9855D01*
G01X10628Y9875D01*
G01X10625Y9894D01*
G01X10620Y9912D01*
G01X10615Y9931D01*
G01X10609Y9949D01*
G01X10602Y9967D01*
G01X10586Y10003D01*
G01X10577Y10020D01*
G01X10567Y10036D01*
G01X10557Y10053D01*
G01X10546Y10068D01*
G01X10534Y10084D01*
G01X10521Y10098D01*
G01X10508Y10113D01*
G01X10480Y10139D01*
G01X10465Y10152D01*
G01X10450Y10164D01*
G01X10434Y10175D01*
G01X10402Y10195D01*
G01X10385Y10204D01*
G01X10367Y10213D01*
G01X10331Y10227D01*
G01X10313Y10233D01*
G01X10275Y10243D01*
G01X10237Y10249D01*
G01X10199Y10253D01*
G37*

%LPD*%
G54D10*
G01X1500Y9492D02*
G01X2094Y9492D01*
G01X3757Y7830D01*
G01X3757Y7830D02*
G01X4761Y6826D01*
G01X4761Y4282D01*
G01X4000Y8800D02*
G01X4789Y8800D01*
G01X9077Y4513D01*
G01X9077Y4236D01*
G01X2150Y986D02*
G01X5597Y4434D01*
G01X6222Y4434D01*
G01X7011Y3646D02*
G01X6222Y4434D01*
G01X6222Y4434D02*
G01X6222Y5163D01*
G01X4588Y953D02*
G01X3967Y332D01*
G01X1898Y332D01*
G01X851Y1380D01*
G01X851Y6598D01*
G01X10892Y1296D02*
G01X10122Y526D01*
G01X8880Y526D01*
G01X8500Y905D01*
G01X8500Y2490D01*
G01X9585Y3576D01*
G01X9585Y4984D01*
G01X8782Y5788D01*
G01X11207Y6655D02*
G01X7797Y6655D01*
G01X7635Y6817D01*
G01X13950Y1036D02*
G01X12309Y2676D01*
G01X12309Y6526D01*
G01X11906Y6930D01*
G01X11482Y6930D01*
G01X11207Y6655D01*
G01X11207Y6655D02*
G01X11207Y4903D01*
G54D11*
G01X8993Y1100D02*
G01X11717Y3825D01*
G01X11717Y6411D01*
G54D10*
G01X14900Y9492D02*
G01X13372Y7965D01*
G01X13372Y6603D01*
G01X14900Y8507D02*
G01X13950Y7557D01*
G01X13950Y5563D01*
G01X13950Y5563D02*
G01X13950Y4382D01*
G01X2150Y4332D02*
G01X2150Y5513D01*
G54D12*
G01X13372Y6602D03*
G01X11327Y8796D03*
G01X7634Y6818D03*
G01X7165Y9781D03*
G01X11717Y6411D03*
G01X8782Y5788D03*
G54D13*
G01X11207Y4904D03*
G01X10892Y1295D03*
G36*
G01X9007Y8590D02*
G01X9608Y8214D01*
G01X9232Y7613D01*
G01X8631Y7989D01*
G01X9007Y8590D01*
G37*
G01X9650Y8950D03*
G01X10179Y9798D03*
G54D15*
G01X13950Y1036D03*
G54D16*
G01X13950Y4382D03*
G01X13950Y5563D03*
G54D12*
G01X3849Y6702D03*
G01X850Y6597D03*
G01X6223Y5163D03*
G01X9076Y4236D03*
G01X4761Y4281D03*
G01X5738Y7118D03*
G54D13*
G01X7011Y3645D03*
G01X4588Y954D03*
G36*
G01X4500Y9340D02*
G01X3812Y9512D01*
G01X3983Y10199D01*
G01X4671Y10028D01*
G01X4500Y9340D01*
G37*
G01X4000Y8800D03*
G01X3758Y7829D03*
G54D15*
G01X2150Y986D03*
G54D16*
G01X2150Y4332D03*
G01X2150Y5513D03*
G54D17*
G01X1421Y8507D02*
G01X1578Y8507D01*
G01X1421Y9492D02*
G01X1578Y9492D01*
G01X14821Y8507D02*
G01X14978Y8507D01*
G01X14821Y9492D02*
G01X14978Y9492D01*
G01X8007Y1178D02*
G01X8007Y1021D01*
G01X8992Y1178D02*
G01X8992Y1021D01*
M00*
M02*
