G04 Layer: TopSilkLayer*
G04 EasyEDA v6.3.39, 2020-04-28T14:26:17+02:00*
G04 c4984e7e24fd4f91a375e58d1da6a638,5f3c4bb061ab4bd6901f6ca22b42259b,10*
G04 Gerber Generator version 0.2*
G04 Scale: 100 percent, Rotated: No, Reflected: No *
G04 Dimensions in inches *
G04 leading zeros omitted , absolute positions ,2 integer and 4 decimal *
%FSLAX24Y24*%
%MOIN*%
G90*
G70D02*

%ADD10C,0.010000*%
%ADD18C,0.005000*%
%ADD20C,0.006000*%

%LPD*%
G54D10*
G01X12812Y6764D02*
G01X11448Y8226D01*
G01X11448Y8226D02*
G01X11668Y8431D01*
G01X11668Y8431D02*
G01X11887Y8635D01*
G01X11887Y8635D02*
G01X13251Y7173D01*
G01X13251Y7173D02*
G01X13031Y6968D01*
G01X13031Y6968D02*
G01X12812Y6764D01*
G01X11668Y8431D02*
G01X11599Y8504D01*
G01X13031Y6968D02*
G01X13100Y6895D01*
G01X7260Y7265D02*
G01X6947Y9240D01*
G01X6947Y9240D02*
G01X7243Y9287D01*
G01X7243Y9287D02*
G01X7539Y9334D01*
G01X7539Y9334D02*
G01X7852Y7359D01*
G01X7852Y7359D02*
G01X7556Y7312D01*
G01X7556Y7312D02*
G01X7260Y7265D01*
G01X7243Y9287D02*
G01X7227Y9386D01*
G01X7556Y7312D02*
G01X7572Y7213D01*
G01X11290Y6014D02*
G01X9334Y5598D01*
G01X9334Y5598D02*
G01X9271Y5892D01*
G01X9271Y5892D02*
G01X9209Y6185D01*
G01X9209Y6185D02*
G01X11165Y6601D01*
G01X11165Y6601D02*
G01X11228Y6307D01*
G01X11228Y6307D02*
G01X11290Y6014D01*
G01X9271Y5892D02*
G01X9174Y5871D01*
G01X11228Y6307D02*
G01X11325Y6328D01*
G01X11688Y4071D02*
G01X11509Y2032D01*
G01X11509Y2032D02*
G01X10411Y2128D01*
G01X10590Y4167D02*
G01X10411Y2128D01*
G01X11688Y4071D02*
G01X10590Y4167D01*
G01X11655Y3695D02*
G01X10557Y3791D01*
G01X10563Y9298D02*
G01X9737Y7976D01*
G54D18*
G01X12178Y642D02*
G01X12178Y4776D01*
G01X13871Y4776D01*
G01X15721Y4776D01*
G01X15721Y642D01*
G01X14540Y642D01*
G01X13359Y642D01*
G01X12178Y642D01*
G01X14540Y642D02*
G01X14540Y1429D01*
G01X13359Y1429D01*
G01X13359Y642D01*
G01X14028Y4815D02*
G01X14028Y5642D01*
G01X13871Y5642D01*
G01X13871Y4776D01*
G54D10*
G01X3359Y6385D02*
G01X1361Y6315D01*
G01X1361Y6315D02*
G01X1350Y6615D01*
G01X1350Y6615D02*
G01X1340Y6914D01*
G01X1340Y6914D02*
G01X3338Y6984D01*
G01X3338Y6984D02*
G01X3349Y6684D01*
G01X3349Y6684D02*
G01X3359Y6385D01*
G01X1350Y6615D02*
G01X1250Y6611D01*
G01X3349Y6684D02*
G01X3449Y6688D01*
G01X6791Y5294D02*
G01X8693Y4676D01*
G01X8693Y4676D02*
G01X8601Y4390D01*
G01X8601Y4390D02*
G01X8508Y4105D01*
G01X8508Y4105D02*
G01X6606Y4723D01*
G01X6606Y4723D02*
G01X6698Y5009D01*
G01X6698Y5009D02*
G01X6791Y5294D01*
G01X8601Y4390D02*
G01X8696Y4360D01*
G01X6698Y5009D02*
G01X6603Y5039D01*
G01X4640Y4852D02*
G01X5291Y6743D01*
G01X5291Y6743D02*
G01X5575Y6645D01*
G01X5575Y6645D02*
G01X5859Y6547D01*
G01X5859Y6547D02*
G01X5208Y4656D01*
G01X5208Y4656D02*
G01X4924Y4754D01*
G01X4924Y4754D02*
G01X4640Y4852D01*
G01X5575Y6645D02*
G01X5608Y6740D01*
G01X4924Y4754D02*
G01X4891Y4659D01*
G01X6894Y2691D02*
G01X5524Y1170D01*
G01X5524Y1170D02*
G01X4705Y1908D01*
G01X6075Y3429D02*
G01X4705Y1908D01*
G01X6894Y2691D02*
G01X6075Y3429D01*
G01X6641Y2411D02*
G01X5822Y3148D01*
G01X430Y7787D02*
G01X430Y10257D01*
G01X2219Y10257D01*
G01X2219Y10257D02*
G01X2219Y7787D01*
G01X2219Y7787D02*
G01X440Y7787D01*
G01X440Y7797D01*
G01X2219Y8492D02*
G01X2019Y8492D01*
G01X2219Y9493D02*
G01X2009Y9493D01*
G01X3238Y8186D02*
G01X3615Y9699D01*
G54D18*
G01X378Y592D02*
G01X378Y4726D01*
G01X2071Y4726D01*
G01X3921Y4726D01*
G01X3921Y592D01*
G01X2740Y592D01*
G01X1559Y592D01*
G01X378Y592D01*
G01X2740Y592D02*
G01X2740Y1379D01*
G01X1559Y1379D01*
G01X1559Y592D01*
G01X2228Y4765D02*
G01X2228Y5592D01*
G01X2071Y5592D01*
G01X2071Y4726D01*
G54D10*
G01X13830Y7787D02*
G01X13830Y10257D01*
G01X15619Y10257D01*
G01X15619Y10257D02*
G01X15619Y7787D01*
G01X15619Y7787D02*
G01X13839Y7787D01*
G01X13839Y7797D01*
G01X15619Y8492D02*
G01X15419Y8492D01*
G01X15619Y9493D02*
G01X15410Y9493D01*
G01X7287Y2169D02*
G01X9757Y2169D01*
G01X9757Y380D01*
G01X9757Y380D02*
G01X7287Y380D01*
G01X7287Y380D02*
G01X7287Y2159D01*
G01X7297Y2159D01*
G01X7992Y380D02*
G01X7992Y580D01*
G01X8993Y380D02*
G01X8993Y590D01*

%LPD*%
G36*
G01X1598Y7650D02*
G01X1525Y7650D01*
G01X1503Y7648D01*
G01X1484Y7645D01*
G01X1466Y7639D01*
G01X1450Y7632D01*
G01X1436Y7622D01*
G01X1424Y7610D01*
G01X1413Y7596D01*
G01X1405Y7581D01*
G01X1398Y7563D01*
G01X1393Y7544D01*
G01X1390Y7524D01*
G01X1390Y7479D01*
G01X1393Y7459D01*
G01X1398Y7440D01*
G01X1405Y7423D01*
G01X1413Y7408D01*
G01X1424Y7394D01*
G01X1436Y7383D01*
G01X1450Y7374D01*
G01X1466Y7366D01*
G01X1484Y7361D01*
G01X1504Y7357D01*
G01X1598Y7357D01*
G01X1598Y7650D01*
G37*

%LPC*%
G36*
G01X1565Y7623D02*
G01X1528Y7623D01*
G01X1504Y7620D01*
G01X1482Y7614D01*
G01X1464Y7604D01*
G01X1449Y7590D01*
G01X1438Y7573D01*
G01X1430Y7552D01*
G01X1425Y7528D01*
G01X1423Y7501D01*
G01X1425Y7475D01*
G01X1430Y7452D01*
G01X1438Y7432D01*
G01X1449Y7415D01*
G01X1464Y7401D01*
G01X1482Y7392D01*
G01X1504Y7386D01*
G01X1528Y7384D01*
G01X1565Y7384D01*
G01X1565Y7623D01*
G37*

%LPD*%
G36*
G01X1713Y7650D02*
G01X1680Y7650D01*
G01X1680Y7357D01*
G01X1711Y7357D01*
G01X1711Y7538D01*
G01X1710Y7561D01*
G01X1708Y7584D01*
G01X1707Y7607D01*
G01X1709Y7607D01*
G01X1740Y7546D01*
G01X1851Y7357D01*
G01X1886Y7357D01*
G01X1886Y7650D01*
G01X1853Y7650D01*
G01X1853Y7490D01*
G01X1855Y7444D01*
G01X1857Y7422D01*
G01X1857Y7400D01*
G01X1855Y7400D01*
G01X1823Y7459D01*
G01X1713Y7650D01*
G37*

%LPD*%
G36*
G01X2073Y7652D02*
G01X2046Y7655D01*
G01X2018Y7652D01*
G01X1993Y7645D01*
G01X1972Y7635D01*
G01X1955Y7621D01*
G01X1955Y7500D01*
G01X2051Y7500D01*
G01X2051Y7528D01*
G01X1986Y7528D01*
G01X1986Y7607D01*
G01X1997Y7615D01*
G01X2011Y7621D01*
G01X2026Y7624D01*
G01X2042Y7626D01*
G01X2065Y7623D01*
G01X2084Y7617D01*
G01X2101Y7606D01*
G01X2116Y7592D01*
G01X2127Y7574D01*
G01X2135Y7553D01*
G01X2140Y7529D01*
G01X2142Y7503D01*
G01X2140Y7476D01*
G01X2135Y7452D01*
G01X2126Y7431D01*
G01X2115Y7413D01*
G01X2101Y7399D01*
G01X2084Y7389D01*
G01X2064Y7383D01*
G01X2042Y7380D01*
G01X2021Y7383D01*
G01X2004Y7389D01*
G01X1990Y7398D01*
G01X1978Y7409D01*
G01X1959Y7388D01*
G01X1974Y7374D01*
G01X1992Y7363D01*
G01X2015Y7355D01*
G01X2044Y7351D01*
G01X2062Y7353D01*
G01X2080Y7356D01*
G01X2097Y7362D01*
G01X2112Y7370D01*
G01X2126Y7380D01*
G01X2138Y7392D01*
G01X2149Y7406D01*
G01X2158Y7422D01*
G01X2166Y7440D01*
G01X2171Y7460D01*
G01X2174Y7481D01*
G01X2176Y7503D01*
G01X2173Y7537D01*
G01X2166Y7567D01*
G01X2155Y7592D01*
G01X2139Y7614D01*
G01X2120Y7632D01*
G01X2098Y7644D01*
G01X2073Y7652D01*
G37*

%LPD*%

%LPD*%
G36*
G01X14947Y7600D02*
G01X14875Y7600D01*
G01X14853Y7598D01*
G01X14834Y7595D01*
G01X14816Y7589D01*
G01X14800Y7582D01*
G01X14786Y7572D01*
G01X14774Y7560D01*
G01X14763Y7546D01*
G01X14755Y7531D01*
G01X14748Y7513D01*
G01X14743Y7494D01*
G01X14740Y7474D01*
G01X14739Y7451D01*
G01X14740Y7429D01*
G01X14743Y7409D01*
G01X14748Y7390D01*
G01X14755Y7373D01*
G01X14763Y7358D01*
G01X14774Y7344D01*
G01X14786Y7333D01*
G01X14800Y7324D01*
G01X14816Y7316D01*
G01X14834Y7311D01*
G01X14854Y7307D01*
G01X14947Y7307D01*
G01X14947Y7600D01*
G37*

%LPC*%
G36*
G01X14914Y7573D02*
G01X14878Y7573D01*
G01X14854Y7570D01*
G01X14832Y7564D01*
G01X14814Y7554D01*
G01X14799Y7540D01*
G01X14788Y7523D01*
G01X14780Y7502D01*
G01X14775Y7478D01*
G01X14773Y7451D01*
G01X14775Y7425D01*
G01X14780Y7402D01*
G01X14788Y7382D01*
G01X14799Y7365D01*
G01X14814Y7351D01*
G01X14832Y7342D01*
G01X14854Y7336D01*
G01X14878Y7334D01*
G01X14914Y7334D01*
G01X14914Y7573D01*
G37*

%LPD*%
G36*
G01X15064Y7600D02*
G01X15030Y7600D01*
G01X15030Y7307D01*
G01X15061Y7307D01*
G01X15061Y7488D01*
G01X15060Y7511D01*
G01X15056Y7557D01*
G01X15059Y7557D01*
G01X15090Y7496D01*
G01X15202Y7307D01*
G01X15235Y7307D01*
G01X15235Y7600D01*
G01X15203Y7600D01*
G01X15203Y7440D01*
G01X15205Y7394D01*
G01X15207Y7350D01*
G01X15206Y7350D01*
G01X15173Y7409D01*
G01X15064Y7600D01*
G37*

%LPD*%
G36*
G01X15423Y7602D02*
G01X15396Y7605D01*
G01X15368Y7602D01*
G01X15343Y7595D01*
G01X15322Y7585D01*
G01X15306Y7571D01*
G01X15306Y7450D01*
G01X15401Y7450D01*
G01X15401Y7478D01*
G01X15336Y7478D01*
G01X15336Y7557D01*
G01X15347Y7565D01*
G01X15361Y7571D01*
G01X15376Y7574D01*
G01X15393Y7576D01*
G01X15415Y7573D01*
G01X15435Y7567D01*
G01X15452Y7556D01*
G01X15466Y7542D01*
G01X15477Y7524D01*
G01X15485Y7503D01*
G01X15490Y7479D01*
G01X15492Y7453D01*
G01X15490Y7426D01*
G01X15485Y7402D01*
G01X15476Y7381D01*
G01X15465Y7363D01*
G01X15451Y7349D01*
G01X15434Y7339D01*
G01X15414Y7333D01*
G01X15393Y7330D01*
G01X15371Y7333D01*
G01X15354Y7339D01*
G01X15340Y7348D01*
G01X15327Y7359D01*
G01X15310Y7338D01*
G01X15324Y7324D01*
G01X15343Y7313D01*
G01X15365Y7305D01*
G01X15393Y7301D01*
G01X15412Y7303D01*
G01X15430Y7306D01*
G01X15447Y7312D01*
G01X15462Y7320D01*
G01X15476Y7330D01*
G01X15488Y7342D01*
G01X15499Y7356D01*
G01X15508Y7372D01*
G01X15516Y7390D01*
G01X15521Y7410D01*
G01X15524Y7431D01*
G01X15526Y7453D01*
G01X15523Y7487D01*
G01X15516Y7517D01*
G01X15505Y7542D01*
G01X15489Y7564D01*
G01X15470Y7582D01*
G01X15448Y7594D01*
G01X15423Y7602D01*
G37*

%LPD*%

%LPD*%
G36*
G01X6974Y1259D02*
G01X6929Y1259D01*
G01X6909Y1256D01*
G01X6890Y1251D01*
G01X6873Y1244D01*
G01X6858Y1236D01*
G01X6844Y1225D01*
G01X6833Y1213D01*
G01X6824Y1199D01*
G01X6816Y1183D01*
G01X6811Y1165D01*
G01X6807Y1145D01*
G01X6806Y1123D01*
G01X6806Y1051D01*
G01X7100Y1051D01*
G01X7100Y1125D01*
G01X7098Y1146D01*
G01X7095Y1165D01*
G01X7089Y1183D01*
G01X7081Y1199D01*
G01X7072Y1213D01*
G01X7060Y1225D01*
G01X7046Y1236D01*
G01X7031Y1244D01*
G01X7014Y1251D01*
G01X6994Y1256D01*
G01X6974Y1259D01*
G37*

%LPC*%
G36*
G01X6978Y1224D02*
G01X6952Y1226D01*
G01X6925Y1224D01*
G01X6902Y1219D01*
G01X6882Y1211D01*
G01X6865Y1200D01*
G01X6851Y1185D01*
G01X6842Y1167D01*
G01X6835Y1145D01*
G01X6834Y1121D01*
G01X6834Y1084D01*
G01X7072Y1084D01*
G01X7072Y1121D01*
G01X7070Y1145D01*
G01X7064Y1167D01*
G01X7054Y1185D01*
G01X7040Y1200D01*
G01X7023Y1211D01*
G01X7002Y1219D01*
G01X6978Y1224D01*
G37*

%LPD*%
G36*
G01X7100Y969D02*
G01X6806Y969D01*
G01X6806Y938D01*
G01X6988Y938D01*
G01X7011Y939D01*
G01X7034Y941D01*
G01X7056Y942D01*
G01X7056Y940D01*
G01X6997Y909D01*
G01X6806Y798D01*
G01X6806Y763D01*
G01X7100Y763D01*
G01X7100Y796D01*
G01X6939Y796D01*
G01X6917Y795D01*
G01X6894Y794D01*
G01X6872Y792D01*
G01X6850Y792D01*
G01X6850Y794D01*
G01X6910Y826D01*
G01X7100Y936D01*
G01X7100Y969D01*
G37*

%LPD*%
G36*
G01X7072Y694D02*
G01X6950Y694D01*
G01X6950Y598D01*
G01X6977Y598D01*
G01X6977Y663D01*
G01X7057Y663D01*
G01X7065Y652D01*
G01X7071Y638D01*
G01X7074Y623D01*
G01X7076Y607D01*
G01X7073Y584D01*
G01X7067Y565D01*
G01X7056Y548D01*
G01X7042Y533D01*
G01X7024Y522D01*
G01X7003Y514D01*
G01X6979Y509D01*
G01X6952Y507D01*
G01X6926Y509D01*
G01X6902Y514D01*
G01X6881Y523D01*
G01X6863Y534D01*
G01X6849Y548D01*
G01X6839Y565D01*
G01X6833Y585D01*
G01X6831Y607D01*
G01X6833Y628D01*
G01X6839Y645D01*
G01X6848Y659D01*
G01X6859Y671D01*
G01X6838Y690D01*
G01X6824Y675D01*
G01X6813Y657D01*
G01X6805Y634D01*
G01X6802Y605D01*
G01X6803Y587D01*
G01X6806Y569D01*
G01X6812Y552D01*
G01X6820Y537D01*
G01X6830Y523D01*
G01X6842Y511D01*
G01X6856Y500D01*
G01X6872Y491D01*
G01X6890Y483D01*
G01X6910Y478D01*
G01X6931Y475D01*
G01X6953Y473D01*
G01X6987Y476D01*
G01X7017Y483D01*
G01X7043Y494D01*
G01X7064Y510D01*
G01X7081Y529D01*
G01X7094Y551D01*
G01X7102Y576D01*
G01X7105Y603D01*
G01X7102Y631D01*
G01X7095Y656D01*
G01X7085Y677D01*
G01X7072Y694D01*
G37*

%LPD*%
G54D20*
G01X11567Y7190D02*
G01X11881Y7482D01*
G01X11567Y7190D02*
G01X11442Y7324D01*
G01X11415Y7383D01*
G01X11416Y7412D01*
G01X11432Y7455D01*
G01X11462Y7483D01*
G01X11506Y7496D01*
G01X11535Y7495D01*
G01X11591Y7464D01*
G01X11717Y7329D01*
G01X11619Y7434D02*
G01X11686Y7692D01*
G01X11340Y7554D02*
G01X11297Y7569D01*
G01X11210Y7573D01*
G01X11524Y7866D01*
G01X6651Y7028D02*
G01X7075Y7096D01*
G01X6651Y7028D02*
G01X6622Y7210D01*
G01X6632Y7274D01*
G01X6650Y7298D01*
G01X6687Y7324D01*
G01X6728Y7330D01*
G01X6771Y7317D01*
G01X6794Y7299D01*
G01X6824Y7242D01*
G01X6853Y7060D01*
G01X6830Y7202D02*
G01X7030Y7378D01*
G01X6683Y7481D02*
G01X6663Y7478D01*
G01X6619Y7491D01*
G01X6595Y7509D01*
G01X6569Y7546D01*
G01X6556Y7626D01*
G01X6570Y7670D01*
G01X6587Y7694D01*
G01X6625Y7720D01*
G01X6665Y7726D01*
G01X6709Y7713D01*
G01X6775Y7682D01*
G01X7009Y7511D01*
G01X6964Y7795D01*
G01X10244Y5155D02*
G01X10155Y5575D01*
G01X10244Y5155D02*
G01X10064Y5117D01*
G01X10000Y5124D01*
G01X9975Y5140D01*
G01X9947Y5176D01*
G01X9939Y5216D01*
G01X9950Y5260D01*
G01X9966Y5284D01*
G01X10021Y5317D01*
G01X10201Y5355D01*
G01X10062Y5325D02*
G01X9875Y5516D01*
G01X9792Y5059D02*
G01X9572Y5013D01*
G01X9657Y5198D01*
G01X9597Y5186D01*
G01X9553Y5197D01*
G01X9529Y5212D01*
G01X9496Y5268D01*
G01X9487Y5308D01*
G01X9495Y5373D01*
G01X9527Y5421D01*
G01X9582Y5453D01*
G01X9642Y5466D01*
G01X9707Y5459D01*
G01X9731Y5444D01*
G01X9760Y5408D01*
G01X10302Y3360D02*
G01X9874Y3397D01*
G01X10302Y3360D02*
G01X10289Y3217D01*
G01X10264Y3157D01*
G01X10220Y3121D01*
G01X10177Y3104D01*
G01X10113Y3089D01*
G01X10012Y3098D01*
G01X9953Y3123D01*
G01X9914Y3148D01*
G01X9876Y3191D01*
G01X9862Y3255D01*
G01X9874Y3397D01*
G01X10183Y2948D02*
G01X10201Y2905D01*
G01X10256Y2838D01*
G01X9829Y2875D01*
G01X10269Y7555D02*
G01X10274Y7600D01*
G01X10261Y7656D01*
G01X10237Y7696D01*
G01X10195Y7746D01*
G01X10109Y7800D01*
G01X10047Y7815D01*
G01X10001Y7819D01*
G01X9944Y7806D01*
G01X9906Y7782D01*
G01X9862Y7712D01*
G01X9858Y7668D01*
G01X9871Y7611D01*
G01X9895Y7572D01*
G01X9936Y7523D01*
G01X10022Y7469D01*
G01X10085Y7453D01*
G01X10131Y7449D01*
G01X10188Y7462D01*
G01X10226Y7485D01*
G01X10269Y7555D01*
G01X9942Y7687D02*
G01X9773Y7648D01*
G01X10020Y7311D02*
G01X10016Y7265D01*
G01X10035Y7180D01*
G01X9671Y7407D01*
G01X15453Y5700D02*
G01X15147Y5700D01*
G01X15085Y5680D01*
G01X15044Y5638D01*
G01X15025Y5576D01*
G01X15025Y5536D01*
G01X15044Y5475D01*
G01X15085Y5434D01*
G01X15147Y5413D01*
G01X15453Y5413D01*
G01X15352Y5257D02*
G01X15372Y5257D01*
G01X15413Y5238D01*
G01X15434Y5217D01*
G01X15453Y5176D01*
G01X15453Y5094D01*
G01X15434Y5053D01*
G01X15413Y5032D01*
G01X15372Y5013D01*
G01X15331Y5013D01*
G01X15289Y5032D01*
G01X15228Y5073D01*
G01X15025Y5278D01*
G01X15025Y4992D01*
G01X3515Y5746D02*
G01X3500Y6175D01*
G01X3515Y5746D02*
G01X3331Y5739D01*
G01X3270Y5757D01*
G01X3248Y5777D01*
G01X3227Y5818D01*
G01X3225Y5859D01*
G01X3244Y5900D01*
G01X3264Y5921D01*
G01X3324Y5943D01*
G01X3508Y5950D01*
G01X3365Y5945D02*
G01X3215Y6165D01*
G01X2890Y5724D02*
G01X3085Y6017D01*
G01X2778Y6006D01*
G01X2890Y5724D02*
G01X2875Y6153D01*
G01X7490Y5831D02*
G01X7357Y5423D01*
G01X7490Y5831D02*
G01X7665Y5774D01*
G01X7717Y5737D01*
G01X7730Y5710D01*
G01X7736Y5665D01*
G01X7724Y5626D01*
G01X7692Y5593D01*
G01X7666Y5581D01*
G01X7602Y5580D01*
G01X7427Y5637D01*
G01X7563Y5593D02*
G01X7629Y5335D01*
G01X8124Y5625D02*
G01X7929Y5689D01*
G01X7853Y5520D01*
G01X7878Y5533D01*
G01X7944Y5533D01*
G01X8002Y5515D01*
G01X8053Y5476D01*
G01X8080Y5425D01*
G01X8081Y5360D01*
G01X8068Y5321D01*
G01X8029Y5269D01*
G01X7978Y5243D01*
G01X7914Y5243D01*
G01X7856Y5261D01*
G01X7803Y5300D01*
G01X7790Y5325D01*
G01X7783Y5370D01*
G01X3970Y5097D02*
G01X4376Y4958D01*
G01X3970Y5097D02*
G01X4030Y5271D01*
G01X4069Y5322D01*
G01X4096Y5335D01*
G01X4141Y5341D01*
G01X4180Y5328D01*
G01X4212Y5295D01*
G01X4224Y5269D01*
G01X4223Y5205D01*
G01X4163Y5031D01*
G01X4210Y5166D02*
G01X4469Y5228D01*
G01X4245Y5708D02*
G01X4199Y5702D01*
G01X4161Y5650D01*
G01X4147Y5612D01*
G01X4146Y5547D01*
G01X4192Y5489D01*
G01X4281Y5435D01*
G01X4378Y5402D01*
G01X4462Y5395D01*
G01X4514Y5421D01*
G01X4553Y5472D01*
G01X4560Y5492D01*
G01X4561Y5556D01*
G01X4535Y5608D01*
G01X4484Y5647D01*
G01X4464Y5654D01*
G01X4400Y5655D01*
G01X4348Y5629D01*
G01X4309Y5578D01*
G01X4302Y5558D01*
G01X4301Y5494D01*
G01X4327Y5442D01*
G01X4378Y5402D01*
G01X5737Y3446D02*
G01X5418Y3733D01*
G01X5737Y3446D02*
G01X5641Y3339D01*
G01X5585Y3307D01*
G01X5528Y3304D01*
G01X5483Y3316D01*
G01X5424Y3343D01*
G01X5348Y3411D01*
G01X5316Y3467D01*
G01X5299Y3510D01*
G01X5296Y3567D01*
G01X5322Y3626D01*
G01X5418Y3733D01*
G01X5365Y3185D02*
G01X5380Y3172D01*
G01X5397Y3130D01*
G01X5399Y3100D01*
G01X5386Y3056D01*
G01X5332Y2996D01*
G01X5290Y2979D01*
G01X5260Y2977D01*
G01X5216Y2990D01*
G01X5186Y3017D01*
G01X5169Y3060D01*
G01X5151Y3131D01*
G01X5136Y3420D01*
G01X4944Y3207D01*
G01X2450Y10153D02*
G01X2450Y9725D01*
G01X2450Y10153D02*
G01X2634Y10153D01*
G01X2694Y10134D01*
G01X2715Y10113D01*
G01X2736Y10071D01*
G01X2736Y10011D01*
G01X2715Y9969D01*
G01X2694Y9950D01*
G01X2634Y9928D01*
G01X2450Y9928D01*
G01X2911Y10153D02*
G01X3136Y10153D01*
G01X3015Y9990D01*
G01X3076Y9990D01*
G01X3117Y9969D01*
G01X3136Y9950D01*
G01X3157Y9888D01*
G01X3157Y9846D01*
G01X3136Y9786D01*
G01X3096Y9744D01*
G01X3034Y9725D01*
G01X2973Y9725D01*
G01X2911Y9744D01*
G01X2892Y9765D01*
G01X2871Y9805D01*
G01X5129Y9910D02*
G01X5084Y9901D01*
G01X5034Y9871D01*
G01X5004Y9836D01*
G01X4970Y9781D01*
G01X4945Y9682D01*
G01X4950Y9618D01*
G01X4960Y9573D01*
G01X4990Y9523D01*
G01X5025Y9494D01*
G01X5104Y9474D01*
G01X5148Y9484D01*
G01X5198Y9514D01*
G01X5228Y9548D01*
G01X5262Y9603D01*
G01X5287Y9702D01*
G01X5283Y9767D01*
G01X5272Y9812D01*
G01X5242Y9861D01*
G01X5208Y9890D01*
G01X5129Y9910D01*
G01X5104Y9558D02*
G01X5194Y9410D01*
G01X5453Y9724D02*
G01X5458Y9744D01*
G01X5487Y9779D01*
G01X5513Y9794D01*
G01X5558Y9803D01*
G01X5636Y9784D01*
G01X5671Y9754D01*
G01X5686Y9729D01*
G01X5696Y9684D01*
G01X5686Y9645D01*
G01X5657Y9610D01*
G01X5602Y9560D01*
G01X5354Y9412D01*
G01X5632Y9343D01*
G01X500Y5303D02*
G01X500Y4996D01*
G01X519Y4936D01*
G01X561Y4894D01*
G01X623Y4875D01*
G01X663Y4875D01*
G01X725Y4894D01*
G01X765Y4936D01*
G01X786Y4996D01*
G01X786Y5303D01*
G01X921Y5221D02*
G01X961Y5242D01*
G01X1023Y5303D01*
G01X1023Y4875D01*
G01X13196Y8100D02*
G01X13625Y8100D01*
G01X13196Y8100D02*
G01X13196Y8284D01*
G01X13215Y8344D01*
G01X13236Y8365D01*
G01X13277Y8386D01*
G01X13339Y8386D01*
G01X13380Y8365D01*
G01X13400Y8344D01*
G01X13421Y8284D01*
G01X13421Y8100D01*
G01X13277Y8521D02*
G01X13256Y8561D01*
G01X13196Y8623D01*
G01X13625Y8623D01*
G01X7300Y2903D02*
G01X7300Y2475D01*
G01X7300Y2903D02*
G01X7484Y2903D01*
G01X7544Y2884D01*
G01X7565Y2863D01*
G01X7585Y2821D01*
G01X7585Y2761D01*
G01X7565Y2719D01*
G01X7544Y2700D01*
G01X7484Y2678D01*
G01X7300Y2678D01*
G01X7742Y2801D02*
G01X7742Y2821D01*
G01X7761Y2863D01*
G01X7782Y2884D01*
G01X7823Y2903D01*
G01X7905Y2903D01*
G01X7946Y2884D01*
G01X7967Y2863D01*
G01X7986Y2821D01*
G01X7986Y2780D01*
G01X7967Y2740D01*
G01X7926Y2678D01*
G01X7721Y2475D01*
G01X8007Y2475D01*
G54D10*
G75*
G01X10565Y9298D02*
G03X9738Y7975I-914J-349D01*
G01*
G54D18*
G75*
G01X12705Y3005D02*
G03X12705Y3008I1245J1D01*
G01*
G75*
G01X12891Y3005D02*
G03X12891Y3007I1059J1D01*
G01*
G54D10*
G75*
G01X3238Y8186D02*
G03X3615Y9700I761J614D01*
G01*
G54D18*
G75*
G01X905Y2955D02*
G03X905Y2958I1245J1D01*
G01*
G75*
G01X1091Y2955D02*
G03X1091Y2957I1059J1D01*
G01*
M00*
M02*
